<svg width="522" height="524" viewBox="0 0 522 524" fill="none" xmlns="http://www.w3.org/2000/svg">
<path d="M153.673 150.226C150.187 171.881 158.286 192.688 177.262 203.667L171.32 231.193C158.871 226.712 148.194 235.947 151.199 249.077C144.52 250.764 139.706 258.121 139.608 264.902C139.584 266.441 140.522 268.747 140.212 269.736C140.071 270.181 135.721 274.106 134.49 276.962C132.174 282.34 133.307 286.222 132.198 290.71C131.693 292.756 129.097 295.989 128.359 299.179C125.702 310.566 129.023 324.11 131.912 335.193C133.466 341.159 136.799 348.515 137.244 354.511C138.018 364.908 132.406 375.559 131.126 385.747C130.2 386 130.114 385.5 129.596 385.141C125.093 381.982 118.585 374.057 114.076 369.977C102.979 359.957 80.4563 340.88 65.618 339.391C61.4804 338.976 56.2398 338.575 55.6426 343.464C53.9241 357.571 70.7429 384.208 78.5856 396.082C84.076 404.397 90.2246 412.266 96.099 420.29C94.1307 428.969 87.5129 439.422 88.5366 448.422C89.2983 455.123 101.09 475.195 105.276 481.507C107.135 484.313 108.871 488.492 112.845 487.744C111.26 495.211 108.902 504.663 108.622 512.248C108.463 516.618 110.669 515.339 111.461 511.37C112.686 505.219 113.064 498.296 114.258 491.954C116.678 479.096 120.498 467.171 125.044 454.981C126.641 454.919 127.195 456.693 128.658 457.176C132.826 458.548 134.837 454.759 138.432 453.745C138.706 455.859 141.345 457.59 141.479 459.648C141.589 461.348 139.846 465.082 139.639 467.629C139.176 473.353 140.364 478.595 143.941 483.089C147.969 488.158 146.866 485.63 149.718 492.065C152.131 497.505 154.946 498.469 157.938 502.271C162.728 508.36 160.961 509.534 169.102 513.818C174.062 516.427 172.667 517.173 176.549 520.555C183.715 526.786 194.345 523.041 201.92 519.258C209.031 523.344 215.218 519.819 223.438 520.555C226.479 520.827 230.538 519.033 233.438 519.632C237.82 520.541 201.962 519.349 206.569 520.555C209.043 521.204 232.42 519.917 234.438 519.632C229.722 518.328 238.398 520.667 234.108 519.561C230.885 518.726 226.82 519.542 223.438 519.258C216.101 518.646 209.76 520.531 203.453 516.68C201.832 515.691 196.414 511.055 195.781 510.913C194.751 510.678 188.633 512.903 188.407 514.028C187.719 517.403 194.452 513.435 195.701 513.991L198.76 517.41C190.839 520.698 179.638 522.602 175.275 513.12C168.81 499.075 190.217 493.629 199.985 492.683L198.992 490.266C187.645 491.756 168.401 496.441 171.948 511.852C167.457 510.536 163.612 507.834 161.668 503.433C154.252 486.65 177.475 474.744 190.802 473.489L190.845 471.06C177.036 472.352 157.481 481.451 157.938 497.944L156.726 498.246C154.233 494.432 151.729 491.354 150.766 486.668C146.598 466.423 164.526 458.264 181.296 457.485L182.295 455.908C182.246 453.603 171.558 455.983 169.992 456.397C156.921 459.834 146.921 468 147.567 482.799C141.65 477.903 140.876 468.902 143.46 461.936C144.355 456.162 147.713 448.095 151.254 445.14C152.905 443.762 165.824 440.498 167.189 440.139C169.364 439.57 162.496 440.998 162.807 440.763C167.341 440.986 172.027 440.454 176.549 440.726C216.457 443.125 237.011 477.513 271.294 492.355C292.214 501.411 318.399 507.822 340.611 513.528C342.158 513.923 350.489 516.303 351.104 515.901C351.908 515.382 351.738 514.517 351.707 513.713C325.108 505.677 295.566 500.645 270.252 489.085C250.911 480.258 236.292 465.28 218.827 453.473C217.852 451.829 218.132 444.676 218.236 442.278C218.504 436.164 219.436 428.765 220.168 422.602C222.136 406.023 225.829 389.678 229.229 373.377L227.7 372.79C227.023 373.223 226.779 373.909 226.487 374.614C224.135 380.276 222.051 394.42 220.893 401.077C217.998 417.669 216.31 434.44 215.214 451.26C208.212 446.352 200.272 443.168 192.362 440.139L188.974 416.426C203.178 411.141 191.515 408.78 189.358 404.248C185.872 396.923 189.632 384.634 191.905 377.228C197.944 357.534 208.864 335.286 225.756 323.17C240.247 312.773 259.204 309.088 276.157 304.755C277.613 310.219 279.844 316.179 280.35 321.841C281.264 331.997 278.345 339.1 287.796 346.432C303.683 358.764 332.408 349.232 348.082 340.318C365.211 330.576 379.952 314.936 386.795 296.076C409.519 303.519 433.93 307.79 453.68 322.181C475.161 337.827 483.241 357.96 490.822 382.792C499.079 409.83 504.423 437.877 508.768 465.83C508.652 466.485 507.957 466.559 507.476 466.77C501.961 469.156 489.249 471.004 482.869 472.104C461.529 475.789 439.159 478.051 417.502 477.575C412.761 455.649 410.116 433.123 407.788 410.776C407.203 405.126 407.343 398.357 406.527 392.893C406.362 391.774 405.911 390.816 405.04 390.086L403.541 392.763C405.966 414.189 407.624 435.738 410.933 457.04C411.499 460.693 413.937 478.286 415.972 479.745C417.002 480.487 418.879 480.091 419.293 481.321C420.555 490.866 420.667 507.698 422.41 517.081C422.916 519.801 424.457 522.744 425.42 518.417L421.804 480.32C448.543 480.165 475.234 476.703 501.321 471.041C504.246 484.702 504.721 504.693 507.299 518.417C507.64 520.234 508.122 520.914 509.901 519.504L504.051 471.356L504.673 470.12C507.159 469.261 510.127 469.737 511.138 466.745C508.219 441.233 502.327 415.858 495.806 391.007C519.828 343.841 497.159 292.781 468.092 254.418C454.997 237.134 439.262 221.785 428.507 202.776L463.335 202.473H510.711C515.293 202.473 521.095 197.058 521.375 192.274L521.232 113.294L521.089 34.3143C519.62 30.9947 516.305 27.3599 512.551 26.9025L459.514 27.2023L406.477 27.5021C404.247 27.8916 399.5 33.4921 399.5 35.2601V99.3946V131.197L403.925 162L412.048 163.832L409.172 154.696C397.344 94.8202 373.011 38.6229 304.517 35.8473C281.514 34.9139 273.025 40.4897 253.001 47.3081C234.476 53.6134 229.065 54.0585 215.207 69.5496L204.866 82.8587V14.5516C204.866 8.33904 197.45 0.395621 191.155 0.0247224L41.3527 0C33.7721 0.772705 28.1537 7.02852 27.0507 14.5454L27.0324 134.494C26.4109 140.558 35.2041 150.232 40.7677 150.232H153.679L153.673 150.226ZM29.4882 40.8112V14.5392C29.4882 9.69899 36.3071 2.49738 41.371 2.48502L189.955 2.46029C194.367 2.68283 198.596 5.73656 200.521 9.66809C200.899 10.4346 202.423 14.6814 202.423 15.1574V40.8112H29.4882ZM515.5 30.1971C516 30.6971 518.558 32.9027 518.529 35.0499C518.5 37.1971 518.749 113.056 518.749 113.056L518.968 191.062C518.572 196.366 513.995 199.976 508.907 200.019L461.821 199.856L427.282 199.995C421.987 191.112 417.471 181.487 414.485 171.559L401.913 136.697V87.1964V37.6956C402.029 33.6034 405.588 29.8511 409.549 29.369L460.977 29.4462L512.405 29.5235C512.405 29.5235 515 29.6971 515.5 30.1971ZM29.4882 43.2839H202.423V87.4826C202.423 88.0698 198.352 96.2976 197.7 98.1459C195.963 103.085 194.44 108.111 192.984 113.143C174.093 116.141 159.523 129.079 154.514 147.791L43.1992 147.747C37.7452 148.026 29.4821 141.164 29.4821 135.699V43.2839H29.4882ZM234.415 200.916C237.267 201.262 240.631 200.668 243.556 200.916C246.682 197.25 238.193 198.666 235.701 198.375C234.695 198.258 229.247 196.978 229.254 196.273C243.69 182.896 247.535 158.361 239.704 140.533C233.422 126.211 220.089 115.937 204.854 113.427C212.307 93.7817 228.583 78.8468 246.602 69.2344C249.582 81.2206 258.893 90.0418 267.955 97.6637C280.148 107.919 293.378 114.435 306.821 122.526C310.209 124.566 321.726 130.958 323.707 133.214C326.101 135.94 330.708 151.697 333.347 156.816C336.059 162.076 346.784 177.833 353.761 175.491C354.456 175.256 358.673 166.824 360.013 165.112C370.769 151.364 388.873 156.173 390.659 173.482C391.81 184.627 388.629 194.005 383.066 203.339C376.29 214.725 366.93 225.395 352.335 221.309L354.2 215.529L352.323 214.787C349.227 220.252 347.046 226.162 343.913 231.62C328.155 259.054 301.714 272.066 272.513 280.35C250.606 286.562 241.033 285.017 225.89 267.69C211.819 251.587 199.93 229.487 195.732 208.34C204.738 209.007 212.825 206.615 220.728 202.473C222.118 201.744 225.804 198.727 226.603 198.598C227.797 198.406 232.611 200.699 234.427 200.922L234.415 200.916ZM200.107 115.788C256.127 117.711 253.677 208.878 196 205.886C140.644 203.017 143.21 113.835 200.107 115.788ZM192.063 208.334C193.648 208.21 193.081 208.247 193.264 209.267C197.871 235.273 214.714 260.748 233.178 278.823L239.491 312.439C239.327 313.174 231.045 316.723 229.436 317.644C205.665 331.194 193.91 360.377 186.884 385.753C185.726 379.627 184.842 373.18 185.372 366.905C187.042 347.025 206.402 331.608 207.931 310.046C208.943 295.742 202.173 285.505 201.18 272.338C200.753 266.713 202.484 260.723 198.48 255.914C195.47 252.297 191.667 251.976 187.268 252.143L182.301 241.375C185.549 230.402 190.381 219.683 192.063 208.34V208.334ZM384.626 294.889C376.028 318.416 354.98 336.751 331.927 344.96C319.356 349.442 300.77 353.102 289.259 344.33C280.928 337.981 283.549 330.52 282.848 321.779C281.873 309.626 275.042 295.093 270.076 284.059C280.886 279.917 292.214 276.956 302.769 272.116C324.279 262.25 341.257 244.941 351.378 223.349L356.016 224.783C354.882 249.819 358.13 284.467 384.62 294.889H384.626ZM153.703 248.477C152.271 243.353 154.453 236.009 159.517 233.734C171.052 228.56 182.313 243.007 184.794 253.089L179.852 256.217C178.736 256.686 177.688 260.692 176.543 260.241C175.562 259.858 171.838 255.252 170.418 254.084C165.556 250.103 160.059 247.933 153.703 248.471V248.477ZM142.71 268.296C141.15 255.772 149.974 248.1 161.924 252.205C172.393 255.796 185.921 274.298 183.995 285.771C183.502 288.695 181.515 292.021 178.663 293.022C174.757 278.39 158.645 262.479 142.71 268.296ZM178.755 262.522C179.035 259.326 185.08 255.153 188.151 254.752C200.631 253.126 198.108 265.328 198.742 272.957C199.827 286.062 206.682 296.824 205.39 310.559C203.696 328.573 189.352 341.783 184.592 358.078C180.29 372.796 185.226 386.482 185.964 401.201C178.444 397.133 170.034 385.666 161.631 384.17C153.228 382.674 141.54 387.879 132.96 388.219C134.154 379.336 138.511 369.971 139.493 361.162C141.571 342.451 126.549 322.978 130.675 300.91C133.813 284.127 149.852 286.68 160.089 295.482C165.324 299.983 174.617 310.628 168.907 317.458C163.222 320.259 151.473 307.061 146.147 305.491L144.544 306.937C151.083 310.807 161.387 322.509 169.553 319.949L173.179 316.822C176.061 321.445 177.834 327.979 177.365 333.444C177.17 335.688 174.062 342.005 177.737 341.251C181.003 334.421 180.345 326.131 177.457 319.282C175.714 315.134 172.24 312.408 172.563 307.246C175.805 308.087 178.797 304.254 179.23 301.33C179.455 299.797 178.883 296.509 179.394 295.618C179.498 295.433 182.161 294.116 182.941 293.35M134.788 288.695C136.062 256.804 168.743 270.045 175.635 291.452C177.256 296.496 178.797 306.177 170.827 304.668C164.142 292.404 148.706 280.696 134.788 288.695ZM87.8602 351.76C82.8512 359.79 75.5082 366.417 66.8246 370.144C64.8015 369.984 58.3969 351.797 58.0618 348.904C57.2574 341.968 57.6657 341.338 64.4176 341.839C72.8148 342.469 80.5355 348.113 87.8541 351.76H87.8602ZM67.7509 372.153C77.0804 368.828 84.2101 361.515 89.993 353.652C105.995 365.31 120.504 379.083 134.191 393.455C142.223 401.881 152.058 412.21 159.145 421.304C162.606 425.748 164.483 426.199 160.394 431.194C152.722 440.566 141.729 448.126 131.711 454.66C130.87 455.167 130.175 455.086 129.316 454.678C128.457 454.27 122.302 447.668 121.065 446.333C111.199 435.676 101.187 422.744 92.4976 411.024C83.3996 398.747 74.3199 385.988 67.757 372.153H67.7509ZM161.15 386.513C163.429 386.909 165.751 388.516 167.64 389.82C176.427 395.879 184.952 404.582 193.276 411.401C193.282 412.526 187.316 414.065 185.976 414.491C180.43 416.253 168.761 420.315 163.563 420.865C162.88 420.939 162.234 421.192 161.607 420.692L134.8 391.001C135.361 390.031 136.104 390.266 136.909 390.062C141.686 388.862 157 385.796 161.15 386.513ZM189.62 440.145C186.018 439.521 181.972 438.544 178.346 438.297C175.263 438.087 162.454 438.897 160.985 437.988C160.467 437.673 159.754 436.22 159.87 435.596C162.295 432.27 168.542 427.677 164.05 423.764L186.579 416.655L189.626 440.145H189.62ZM112.832 485.265C110.882 485.58 109.712 483.763 108.689 482.378C105.154 477.618 91.8333 453.967 91.0533 448.96C90.5536 445.715 91.1143 443.786 91.8212 440.77C92.3696 438.427 97.3726 423.405 98.5243 422.843C106.16 433.413 114.843 443.236 123.637 452.811C118.932 463.215 115.715 474.218 112.826 485.265H112.832Z" fill="black"/>
<path d="M116.449 263.753C117.936 263.332 118.49 260.155 117.637 258.832C113.566 254.591 107.997 242.327 102.756 240.553C96.5404 238.451 88.4113 238.457 82.0555 236.207C68.1313 210.325 44.1402 186.358 15.5971 178.137C6.44426 175.504 1.4352 173.049 0.374893 184.943C-2.43433 216.432 10.7282 247.86 30.1367 271.622C30.1611 278.786 26.5414 289.246 27.9308 296.064C28.2233 297.504 38.1013 313.218 39.3322 314.17C41.331 315.715 42.1353 315.363 43.543 313.416C46.7239 308.99 48.8507 299.322 50.9591 294.043C55.8097 298.611 58.8749 296.627 63.7377 293.425L69.2525 301.807L73.4999 300.224C73.1404 307.92 75.779 319.604 82.3419 324.327C86.9549 327.646 86.638 322.583 88.4296 319.387C90.666 321.854 98.6975 329.828 101.885 327.467C106.351 324.153 99.6847 311.327 100.318 310.733C102.262 310.498 106.504 312.903 107.04 309.787C108.131 303.451 96.4855 289.882 89.953 289.091C88.9536 288.059 93.4142 286.594 93.6275 284.436C93.8774 281.97 89.2035 277.779 89.4046 276.512C93.7311 272.629 97.6982 270.256 94.2125 263.753H116.455H116.449ZM5.24379 216.154C3.32426 210.714 0.911148 181.252 4.60396 178.724C6.07864 177.71 16.9133 181.067 19.229 181.871C25.9626 184.213 32.2025 187.805 38.1317 191.737L5.24379 216.154ZM5.90799 218.726L39.9964 193.572C40.618 193.09 41.0446 193.535 41.5991 193.746C43.8964 194.63 50.9043 200.576 53.0858 202.536C66.1508 214.269 76.6686 230.384 84.3772 246.209C86.9122 251.408 91.4338 260.841 92.683 266.213C93.006 267.591 93.2985 268.512 92.6647 269.922C91.7141 272.024 76.7722 282.186 73.7985 284.164C70.6358 286.266 59.8255 293.734 57.0285 294.414C55.5416 294.778 50.5569 290.117 49.1005 288.794C46.5838 286.507 43.8294 283.583 41.4833 281.067C25.1399 263.536 11.7031 242.339 5.90799 218.719V218.726ZM115.535 261.28H93.9018L83.8532 239.026L103.67 243.953C104.907 245.504 116.449 260.458 115.535 261.28ZM41.7941 311.969C40.6728 312.235 40.6119 311.58 40.0695 310.943C39.0458 309.744 30.5694 295.811 30.3501 294.846C29.1435 289.555 32.7205 280.06 32.0563 274.261L49.0152 291.935L41.7941 311.969ZM91.1108 284.702L70.6419 298.926L65.578 292.497L86.6746 278.045L90.4527 282.712L91.1108 284.708V284.702ZM89.1486 316.501C88.6063 316.025 87.5826 315.431 86.8696 315.938L84.1518 322.472C78.4236 319.356 73.6461 302.839 76.4919 298.024C76.9124 297.313 86.4918 290.581 87.284 290.494C92.5185 289.901 104.456 302.654 104.578 308.57L96.65 307.655C95.8396 308.427 103.493 323.171 100.002 325.563C97.5763 323.906 94.9743 322.515 92.7013 320.611C91.2083 319.356 90.1785 317.409 89.1486 316.507V316.501Z" fill="black"/>
<path d="M113.037 175.355C112.83 184.399 106.858 193.01 97.187 192.052V193.9C106.84 193.597 112.83 201.948 112.738 211.215C114.816 211.178 114.189 207.03 114.731 205.2C116.736 198.351 123.597 194.555 130.105 193.585L122.372 190.92C115.761 187.421 115.097 183.051 114.25 176.276C114.146 175.435 113.853 174.341 113.037 175.349V175.355Z" fill="black"/>
<path d="M228.28 218.082C227.293 219.677 231.321 227.089 232.363 228.931C239.377 241.331 247.554 248.848 262.478 246.283C274.531 244.212 285.561 235.638 291.289 224.82C293.044 221.501 298.206 210.12 293.41 207.808C289.504 205.923 273.94 213.038 268.889 214.46C263.38 216.011 256.774 217.65 251.083 218.033C247.749 218.255 229.096 216.772 228.286 218.082H228.28ZM236.732 220.487C248.237 222.131 259.687 220.215 270.717 216.939C273.697 216.055 290.436 209.348 291.606 210.232C293.294 217.155 289.193 224.301 283.069 227.614C269.851 234.773 244.13 237.066 236.732 220.487Z" fill="black"/>
<path d="M267.351 134.402C269.13 136.466 282.274 132.652 285.79 132.652C289.91 132.652 296.217 134.371 299.916 136.299C303.261 138.043 308.813 144.082 311.049 144.805C316.454 146.555 314.388 139.551 312.92 136.707C306.387 124.06 286.595 117.631 273.962 123.8C271.104 125.197 264.401 130.977 267.351 134.402Z" fill="black"/>
<path d="M187.26 137.579C189.039 139.644 202.128 133.691 205.638 133.691C209.758 133.691 223.298 133.53 226.997 135.459C230.342 137.202 233.877 152.007 235.12 153.713C238.502 158.331 234.291 142.728 232.823 139.885C226.29 127.237 206.498 120.808 193.865 126.977C191.007 128.374 184.304 134.154 187.253 137.579H187.26Z" fill="black"/>
<path d="M278.477 156.47C270.884 156.47 268.112 172.876 275.491 175.911C286.917 180.61 287.307 156.47 278.477 156.47Z" fill="black"/>
<path d="M367.145 186.482C371.069 186.507 374.555 191.526 373.726 195.309C373.598 195.903 369.399 201.231 372.324 200.712C379.807 196.41 375.956 185.629 368.363 183.985C368.924 178.341 375.981 167.807 382.367 170.731C385.511 172.172 384.03 178.903 386.328 178.44C388.625 177.976 386.815 169.402 383.019 168.215C368.741 163.74 363.744 188.899 361.691 198.474L363.178 199.457C364.53 199.148 366.718 188.485 367.151 186.476L367.145 186.482Z" fill="black"/>
<path d="M271.394 158.578C280.102 144.36 299.833 153.052 300.144 168.518L302.539 168.555C302.393 155.005 289.2 144.577 276.336 150.319C274.02 151.352 265.251 158.287 271.388 158.584L271.394 158.578Z" fill="black"/>
<path d="M48.882 74.2046C48.0472 74.4457 47.8034 75.8551 47.9679 76.6711L165.906 76.6463C168.63 76.6463 171.299 77.7652 174.401 76.6216L194.547 77.0358C196.796 76.6772 195.315 74.2046 194.523 74.2046H48.882Z" fill="black"/>
<path d="M61.842 96.23C61.5983 96.9471 62.1102 98.7026 62.7561 98.7026H180.975L181.883 97.7692L180.975 96.23H61.842Z" fill="black"/>
<path d="M86.2194 119.102L85.6222 120.647L86.5241 121.575H156.297C156.541 120.858 156.029 119.102 155.383 119.102H86.2194Z" fill="black"/>
<path d="M497.788 48.1669L421.714 48C417.68 48.8716 416.833 52.593 416.546 56.3576C414.797 79.2482 417.917 104.364 416.546 127.496C417.022 132.93 419.422 135.359 424.773 135.841C447.216 134.512 471.457 137.516 493.681 135.841C498.647 135.464 501.396 134.123 501.914 128.738C504.15 105.329 500.152 78.2962 501.914 54.4969C501.895 52.0428 500.347 48.748 497.794 48.1669H497.788ZM420.83 50.5097H497.611L458.916 90.0599L420.83 50.5097ZM499.44 52.9824V130.871L461.092 92.1493L499.44 52.9824ZM419.611 130.253V54.5278L457.38 92.2358L419.611 130.253ZM421.439 132.719L459.44 94.4427L497.002 132.719H421.439Z" fill="black"/>
<path d="M495.705 154.361H422.58L421.672 155.295L422.58 156.834H495.705L496.613 155.901L495.705 154.361Z" fill="black"/>
<path d="M431.776 177.233H485.705L486.613 176.3L485.705 174.761H432.08L431.178 175.688L431.776 177.233Z" fill="black"/>
<path d="M172.534 18.5579C167.696 13.6559 158.896 20.4618 163.875 26.4148C168.957 32.4851 178.104 24.2079 172.534 18.5579ZM170.767 20.3444C173.259 22.8603 169.78 27.9973 166.288 25.197C163.065 22.6131 167.531 17.0805 170.767 20.3444Z" fill="black"/>
<path d="M189.379 17.2408C179.013 14.8485 179.927 30.0863 188.471 28.4296C194.912 27.1809 194.406 18.403 189.379 17.2408ZM185.089 20.344C188.245 17.1605 193.09 22.6498 189.555 25.1843C185.722 27.9351 182.736 22.7178 185.089 20.344Z" fill="black"/>
<path d="M144.932 18.5577C139.368 24.0718 148.448 32.5468 153.591 26.4146C158.277 20.8264 150.172 13.3652 144.932 18.5577ZM146.699 20.3442C149.856 17.1607 154.7 22.65 151.166 25.1845C147.333 27.9353 144.347 22.718 146.699 20.3442Z" fill="black"/>
<path d="M108.924 380.734C93.72 378.237 90.9473 401.529 105.463 403.402C120.27 405.312 123.086 383.058 108.924 380.734ZM108.302 383.194C119.058 384.771 117.711 401.622 106.651 401.016C94.7315 400.361 96.1818 381.42 108.302 383.194Z" fill="black"/>
<path d="M207.008 121.748C153.09 115.183 152.481 203.179 204.052 200.001C248.458 197.263 248.762 126.835 207.008 121.748ZM205.789 124.221C250.999 129.759 241.194 206.375 195.259 196.719C153.84 188.009 162.731 118.948 205.789 124.221Z" fill="black"/>
<path d="M48.8952 218.849C43.484 213.459 33.9107 213.582 28.6883 219.238C21.4307 227.095 25.8121 241.511 36.2811 243.705C51.284 246.852 59.3521 229.265 48.8952 218.855V218.849ZM40.7418 217.538C54.6233 219.819 54.4893 242.877 38.4505 241.505C23.2527 240.206 24.6604 214.899 40.7418 217.538Z" fill="black"/>
<path d="M56.7324 253.256L55.4588 255.129C60.5897 262.213 65.5988 272.085 71.7535 278.193C73.5633 279.991 75.2208 278.953 74.4164 277.352L56.7385 253.256H56.7324Z" fill="black"/>
<path d="M106.653 401.01C117.713 401.615 119.053 384.764 108.304 383.188L106.653 401.01Z" fill="white"/>
<path d="M204.004 145.455C191.091 142.827 189.647 171.016 200.622 171.949C211.597 172.882 214.174 147.519 204.004 145.455Z" fill="black"/>
</svg>
