<svg width="216" height="458" viewBox="0 0 216 458" fill="none" xmlns="http://www.w3.org/2000/svg">
<path d="M8.47634 346.836C5.18553 348.137 0.109694 342.377 0 338.382C2.13404 323.612 -3.20108 290.011 4.25811 278.636C13.0835 265.157 28.1614 253.228 37.0666 239.229C29.8467 165.144 43.7379 80.2172 86.1396 21.2754C99.7317 2.37514 105.894 -10.0628 123.027 13.0363C168.39 74.185 184.096 158.659 178.442 236.399C187.537 251.293 207.581 267.658 213.704 283.82C215 287.238 216.735 334.307 215.668 338.087C213.943 344.222 211.998 344.686 206.913 342.705C195.365 338.201 179.1 321.292 168.46 313.438C165.299 330.041 157.092 330.425 143.998 330.923L144.477 356.388L134.594 359.342C145.075 374.768 155.087 402.858 148.954 422.29C144.646 435.939 138.773 424.972 131.373 421C130.376 429.397 125.659 457.714 116.754 457.499C104.259 457.193 100.24 420.807 98.3056 420.513C94.4065 422.878 89.6099 434.094 84.6438 428.424C74.542 416.891 78.81 371.667 89.8991 360.428C90.4276 356.829 80.2959 360.326 77.1547 356.184C73.5547 351.431 76.8655 335.881 74.871 333.56C61.8972 331.863 51.5262 332.768 49.6814 314.173L8.46636 346.836H8.47634ZM153.811 84.88C150.43 70.7897 117.313 6.16653 107.261 6.34761C103.232 6.41551 87.446 29.277 84.1751 34.3472C74.6916 49.0827 67.7011 65.7081 61.7277 82.5486L153.801 84.8687L153.811 84.88ZM155.855 91.1839L60.6108 89.1015C58.8358 89.0223 58.6164 90.5615 57.8685 91.8177C54.7472 97.0238 49.3423 119.648 47.7966 126.913C38.5524 170.418 39.6294 219.276 45.513 263.392C47.4476 277.889 51.0974 304.09 55.6347 317.059C56.8015 320.387 57.4297 322.741 60.4014 324.71C64.8391 327.664 105.486 326.804 113.523 326.532C122.069 326.238 151.617 325.853 157.67 323.148C160.891 321.711 164.182 304.735 165.189 299.857C166.934 291.414 168.31 281.307 169.447 272.649C177.375 212.316 175.231 148.643 155.845 91.1726L155.855 91.1839ZM7.02042 340.374L47.0986 308.605L37.3358 247.717L6.90075 287.023C6.59162 292.048 4.27807 340 7.02042 340.362V340.374ZM208.299 337.159C210.722 336.062 209.994 334.624 210.183 332.508C210.552 328.524 208.478 287.204 207.66 284.872C203.143 272.14 184.415 257.699 178.253 244.706L169.377 306.24L208.309 337.159H208.299ZM82.1507 353.061L138.214 352.495L139.401 331.727L81.8815 332.746L80.8344 347.968L82.1507 353.072V353.061ZM126.337 416.077C126.736 414.288 127.873 411.561 129.838 411.561L143.2 421.113C149.832 406.242 137.616 364.989 126.208 359.183C124.522 358.323 98.186 358.448 96.6104 359.41C86.1595 365.861 80.3059 409.841 87.6255 422.267L101.148 408.732C103.631 409.139 108.258 450.935 117.781 450.776C120.165 443.771 123.216 437.071 124.991 429.805C126.168 425.006 125.59 419.461 126.337 416.077Z" fill="black" fill-opacity="0.23"/>
<g clip-path="url(#clip0_1578_2648)">
<path d="M90 180.75C92.1005 175.712 91.5164 169.971 92.9171 164.782C94.6432 158.387 100.907 154.172 107.619 155.881C108.759 156.172 111.966 156.953 112.683 157.752C112.819 157.902 112.769 158.077 112.972 158.238C113.23 158.444 113.554 158.345 113.688 158.419C113.743 158.449 114.413 159.198 114.527 159.327C116.464 161.5 117.501 164.478 117.215 167.371C117.127 168.256 116.728 169.617 116.752 170.39C116.792 171.724 117.293 173.173 117.305 174.551C117.315 175.596 116.893 176.779 116.906 177.709C116.983 182.924 119.817 187.918 120.842 192.946C120.988 193.308 122.241 193.548 121.958 194.159C119.271 192.108 115.973 191.014 112.882 189.69C112.844 195.012 106.241 194.897 102.457 193.793C99.5653 192.951 96.873 191.209 95.3481 188.604L90 190.999V180.75ZM116.207 167.187C115.927 165.005 115.048 162.847 113.589 161.176C112.529 159.964 111.302 159.569 109.988 158.715C109.388 159.647 108.117 159.58 107.113 159.962C104.095 161.11 101.255 164.29 100.091 167.225C99.6954 168.222 99.2297 170.547 98.3328 171.118C97.037 171.944 96.7538 169.959 95.7336 169.749C95.2171 169.642 94.8215 169.808 94.458 170.152C93.1343 171.408 93.9542 174.544 94.9754 175.812C95.1165 175.987 95.9821 176.843 96.1807 176.666C96.4478 175.469 97.5493 176.02 97.5121 177.051L98.3751 176.852C99.4123 180.92 104.041 183.793 107.978 184.657C112.196 185.583 113.901 182.842 115.675 179.569C117.801 175.642 116.674 173.812 116.366 169.845C116.312 169.146 116.434 168.432 116.274 167.74C115.532 167.384 114.736 167.274 113.911 167.351C113.503 167.389 112.572 167.749 112.339 167.727C111.846 167.681 112.081 166.983 112.334 166.722C113.111 165.919 114.955 165.975 115.777 166.726L116.209 167.186L116.207 167.187ZM96.6997 176.286C96.4191 176.365 96.3354 177.482 96.8451 177.486C97.3777 177.491 97.1959 176.145 96.6997 176.286ZM109.636 185.143C108.178 185.147 106.676 184.647 105.336 184.1C103.225 183.238 101.378 182.008 99.8594 180.325L98.7631 178.747C99.0361 180.494 98.9871 182.412 98.6591 184.155C98.3675 185.706 97.955 186.823 96.6431 187.795C96.3532 188.009 96.0184 188.16 95.7294 188.357C95.6693 188.397 95.6042 188.348 95.6414 188.482C95.6854 188.641 96.07 189.157 96.1951 189.329C98.791 192.895 104.547 194.823 108.841 193.876C111.171 193.362 112.671 192.047 112.521 189.547L110.301 188.612L110.497 189.417C110.244 189.791 109.998 188.985 109.926 188.75C109.575 187.6 109.641 186.332 109.636 185.143Z" fill="black" fill-opacity="0.53"/>
<path d="M102.205 168.267C102.282 167.495 103.103 166.759 103.794 166.481C104.688 166.121 107.717 165.876 108.261 166.809C108.41 167.066 108.432 167.549 108.095 167.64C107.92 167.687 106.88 167.371 106.546 167.343C105.043 167.222 103.524 167.573 102.206 168.267H102.205Z" fill="black" fill-opacity="0.53"/>
<path d="M106.352 169.885C106.344 170.052 106.479 170.141 106.504 170.312C106.758 172.022 104.841 172.072 105.028 170.547C105.059 170.299 105.223 170.121 105.257 169.885C105.203 169.832 104.481 170.209 104.372 170.284C104.082 170.484 103.927 170.868 103.536 170.809C103.355 170.638 104.233 169.981 104.372 169.899C105.199 169.409 106.166 169.348 107.032 169.794C107.313 169.939 107.936 170.33 107.565 170.654C107.24 170.303 106.825 170.009 106.353 169.885H106.352Z" fill="black" fill-opacity="0.53"/>
<path d="M112.348 174.79C112.546 174.587 112.567 174.387 112.495 174.121C112.347 173.58 111.502 172.505 111.213 171.839C110.762 170.8 110.455 169.609 111.242 168.653L111.436 168.77C110.846 169.801 111.011 170.51 111.447 171.532C111.786 172.325 112.428 173.158 112.727 173.893C113.294 175.285 111.238 175.67 110.223 175.741C109.948 175.76 108.798 175.689 109.523 175.438C109.922 175.301 110.651 175.335 111.127 175.246C111.455 175.184 112.123 175.022 112.348 174.791L112.348 174.79Z" fill="black" fill-opacity="0.53"/>
<path d="M106.083 177.287C108.431 178.391 111.165 178.754 113.445 177.295L113.63 177.478C113.63 177.627 113.101 177.89 112.951 177.967C111.117 178.9 108.85 178.72 106.958 178.035C106.742 177.957 105.958 177.69 105.957 177.478L106.083 177.287Z" fill="black" fill-opacity="0.53"/>
<path d="M114.173 169.809C115.171 171.564 112.767 172.184 113.233 170.039L112.767 170.542L112.529 170.461C112.843 169.476 114.17 169.213 114.981 169.743C115.093 169.816 115.742 170.351 115.384 170.423C115.278 170.445 114.503 169.641 114.173 169.808L114.173 169.809Z" fill="black" fill-opacity="0.53"/>
<path d="M96.5762 173.503C96.5423 173.48 96.331 172.869 96.2803 172.751C96.2524 172.686 96.2879 172.514 96.1425 172.583C95.8315 172.73 95.6176 173.877 95.9802 174.128C96.1653 174.256 96.4874 174.143 96.4147 174.508C95.0369 174.611 95.3691 172.779 96.0808 172.16L95.517 170.896C95.1535 171.064 94.7985 171.296 94.763 171.725L94.4596 171.734C94.1654 171.453 95.5939 170.004 95.927 170.866L96.8729 173.33C96.8974 173.489 96.6548 173.557 96.5753 173.503H96.5762Z" fill="black" fill-opacity="0.53"/>
<path d="M111.984 179.596C112.314 179.932 110.848 180.197 110.692 180.21C109.991 180.272 109.29 180.175 108.62 179.979C108.548 179.453 109.253 179.856 109.608 179.893C110.456 179.982 111.184 179.829 111.984 179.595V179.596Z" fill="black" fill-opacity="0.53"/>
</g>
<path d="M76.3608 164.76C79.5208 147.87 97.4608 135.67 114.401 139.25C137.941 144.22 148.231 176.31 131.581 193.91C107.731 219.13 70.2508 197.39 76.3608 164.76ZM89.8408 151.78C66.9608 173.97 96.7008 216.03 124.751 192.71C151.331 170.61 116.341 126.09 89.8408 151.78Z" fill="black" fill-opacity="0.23" stroke="black" stroke-opacity="0.23" stroke-width="0.5" stroke-miterlimit="10"/>
<path d="M105.809 238.94L110.579 240.72C110.119 260.35 113.419 284.93 109.799 304.1C108.729 309.75 104.329 309.98 103.779 306.01L105.809 238.94Z" fill="black" fill-opacity="0.23"/>
<defs>
<clipPath id="clip0_1578_2648">
<rect width="32" height="57" fill="white" transform="translate(90 155.5)"/>
</clipPath>
</defs>
</svg>
