<svg width="460" height="47" viewBox="0 0 460 47" fill="none" xmlns="http://www.w3.org/2000/svg">
<path d="M8.92758 42.46C8.92758 45.14 7.52758 46.48 4.72758 46.48C3.36758 46.48 2.28758 46.14 1.48758 45.46C0.687578 44.78 0.287578 43.78 0.287578 42.46V13.48C0.287578 10.48 1.08758 8.16 2.68758 6.52C4.32758 4.84 6.60758 4 9.52758 4H22.4276C23.7076 4 24.7276 4.36 25.4876 5.08C26.2476 5.8 26.6276 6.78 26.6276 8.02C26.6276 9.18 26.2476 10.12 25.4876 10.84C24.7276 11.56 23.7076 11.92 22.4276 11.92H12.8276C11.6676 11.92 10.8076 12.04 10.2476 12.28C9.68758 12.48 9.32758 12.96 9.16758 13.72C9.00758 14.44 8.92758 15.58 8.92758 17.14C8.92758 18.22 8.88758 19.4 8.80758 20.68C8.72758 21.92 8.58758 23.1 8.38758 24.22C9.94758 22.98 12.2276 22.36 15.2276 22.36H19.4276C22.1876 22.36 23.5676 23.7 23.5676 26.38C23.5676 29.06 22.1876 30.4 19.4276 30.4H14.7476C12.4676 30.4 10.9276 30.76 10.1276 31.48C9.32758 32.2 8.92758 33.62 8.92758 35.74V42.46ZM40.001 46.48C35.721 46.48 32.341 45.26 29.861 42.82C27.381 40.38 26.141 36.44 26.141 31C26.141 25.52 27.381 21.58 29.861 19.18C32.341 16.74 35.721 15.52 40.001 15.52C44.281 15.52 47.661 16.74 50.141 19.18C52.621 21.58 53.861 25.52 53.861 31C53.861 36.44 52.621 40.38 50.141 42.82C47.661 45.26 44.281 46.48 40.001 46.48ZM40.001 39.28C41.121 39.28 42.061 39.06 42.821 38.62C43.581 38.14 44.161 37.3 44.561 36.1C45.001 34.9 45.221 33.2 45.221 31C45.221 28.8 45.001 27.1 44.561 25.9C44.161 24.7 43.581 23.88 42.821 23.44C42.061 22.96 41.121 22.72 40.001 22.72C38.921 22.72 37.981 22.96 37.181 23.44C36.421 23.88 35.821 24.7 35.381 25.9C34.981 27.1 34.781 28.8 34.781 31C34.781 33.2 34.981 34.9 35.381 36.1C35.821 37.3 36.421 38.14 37.181 38.62C37.981 39.06 38.921 39.28 40.001 39.28ZM63.9546 46.48C61.0746 46.48 59.6346 45.12 59.6346 42.4V19.66C59.6346 16.9 61.0746 15.52 63.9546 15.52C65.3946 15.52 66.4346 15.84 67.0746 16.48C67.7146 17.08 68.0346 18.08 68.0346 19.48C68.7546 18.16 69.7746 17.18 71.0946 16.54C72.4546 15.86 74.0346 15.52 75.8346 15.52C79.2746 15.52 80.9946 17.02 80.9946 20.02C80.9946 21.14 80.5746 21.98 79.7346 22.54C78.8946 23.1 77.5146 23.38 75.5946 23.38C73.7146 23.38 72.2346 23.56 71.1546 23.92C70.0746 24.24 69.3146 24.86 68.8746 25.78C68.4746 26.66 68.2746 27.94 68.2746 29.62V42.4C68.2746 45.12 66.8346 46.48 63.9546 46.48ZM93.5191 46.48C89.5191 46.48 86.3991 45.56 84.1591 43.72C81.9191 41.84 80.7991 39.42 80.7991 36.46C80.7991 32.98 82.2591 30.46 85.1791 28.9C88.1391 27.34 92.4591 26.8 98.1391 27.28C97.8591 25.44 97.2791 24.2 96.3991 23.56C95.5191 22.88 94.4591 22.54 93.2191 22.54C92.2191 22.54 91.3791 22.6 90.6991 22.72C90.0591 22.8 89.4591 22.9 88.8991 23.02C88.3391 23.14 87.6591 23.2 86.8591 23.2C85.7791 23.2 84.9191 23.02 84.2791 22.66C83.6391 22.26 83.3191 21.48 83.3191 20.32C83.3191 18.68 84.0191 17.48 85.4191 16.72C86.8591 15.92 89.1191 15.52 92.1991 15.52C97.0791 15.52 100.699 16.92 103.059 19.72C105.419 22.48 106.599 26.18 106.599 30.82C106.599 36.18 105.619 40.14 103.659 42.7C101.739 45.22 98.3591 46.48 93.5191 46.48ZM89.4391 36.46C89.4391 38.74 90.9791 39.88 94.0591 39.88C95.0591 39.88 95.8391 39.7 96.3991 39.34C96.9591 38.98 97.3591 38.26 97.5991 37.18C97.8791 36.1 98.0791 34.48 98.1991 32.32C97.9991 32.52 97.7391 32.66 97.4191 32.74C97.0991 32.82 96.7791 32.86 96.4591 32.86C93.8191 32.86 91.9791 33.12 90.9391 33.64C89.9391 34.12 89.4391 35.06 89.4391 36.46ZM138.095 46.48C133.695 46.48 130.215 45.08 127.655 42.28C125.135 39.48 123.875 35.38 123.875 29.98C123.875 26.38 124.395 23.52 125.435 21.4C126.475 19.28 127.915 17.78 129.755 16.9C131.635 15.98 133.755 15.52 136.115 15.52C138.235 15.52 139.955 15.78 141.275 16.3C142.595 16.82 143.635 17.7 144.395 18.94C144.115 18.1 143.895 17.32 143.735 16.6C143.615 15.84 143.515 14.96 143.435 13.96C143.395 12.96 143.375 11.68 143.375 10.12V4.96C143.375 1.84 144.715 0.279999 147.395 0.279999C150.315 0.279999 151.775 1.84 151.775 4.96V30.34C151.775 35.74 150.575 39.78 148.175 42.46C145.775 45.14 142.415 46.48 138.095 46.48ZM137.675 39.28C139.355 39.28 140.655 38.68 141.575 37.48C142.535 36.28 143.015 34.04 143.015 30.76C143.015 28.56 142.795 26.9 142.355 25.78C141.955 24.62 141.355 23.82 140.555 23.38C139.755 22.94 138.795 22.72 137.675 22.72C136.555 22.72 135.595 22.94 134.795 23.38C133.995 23.82 133.375 24.62 132.935 25.78C132.535 26.9 132.335 28.56 132.335 30.76C132.335 34.04 132.795 36.28 133.715 37.48C134.675 38.68 135.995 39.28 137.675 39.28ZM171.31 46.48C167.03 46.48 163.65 45.26 161.17 42.82C158.69 40.38 157.45 36.44 157.45 31C157.45 25.52 158.69 21.58 161.17 19.18C163.65 16.74 167.03 15.52 171.31 15.52C175.59 15.52 178.97 16.74 181.45 19.18C183.93 21.58 185.17 25.52 185.17 31C185.17 36.44 183.93 40.38 181.45 42.82C178.97 45.26 175.59 46.48 171.31 46.48ZM171.31 39.28C172.43 39.28 173.37 39.06 174.13 38.62C174.89 38.14 175.47 37.3 175.87 36.1C176.31 34.9 176.53 33.2 176.53 31C176.53 28.8 176.31 27.1 175.87 25.9C175.47 24.7 174.89 23.88 174.13 23.44C173.37 22.96 172.43 22.72 171.31 22.72C170.23 22.72 169.29 22.96 168.49 23.44C167.73 23.88 167.13 24.7 166.69 25.9C166.29 27.1 166.09 28.8 166.09 31C166.09 33.2 166.29 34.9 166.69 36.1C167.13 37.3 167.73 38.14 168.49 38.62C169.29 39.06 170.23 39.28 171.31 39.28ZM217.63 46.48C213.91 46.48 211.15 45.6 209.35 43.84C207.59 42.08 206.71 39.38 206.71 35.74V23.26H205.15C202.43 23.26 201.07 22.04 201.07 19.6C201.07 17.2 202.43 16 205.15 16H206.71V9.52C206.71 8.2 207.11 7.12 207.91 6.28C208.75 5.44 209.83 5.02 211.15 5.02C212.43 5.02 213.45 5.42 214.21 6.22C214.97 6.98 215.35 8.04 215.35 9.4V12.34C215.35 13.82 215.11 15.04 214.63 16H220.33C223.05 16 224.41 17.2 224.41 19.6C224.41 22.04 223.05 23.26 220.33 23.26H215.35V35.92C215.35 37.12 215.49 37.98 215.77 38.5C216.05 38.98 216.51 39.22 217.15 39.22C217.99 39.22 218.61 39.16 219.01 39.04C219.45 38.88 219.99 38.8 220.63 38.8C221.71 38.8 222.57 39 223.21 39.4C223.85 39.76 224.17 40.52 224.17 41.68C224.17 43.32 223.65 44.54 222.61 45.34C221.57 46.1 219.91 46.48 217.63 46.48ZM234.462 46.48C231.582 46.48 230.142 45.12 230.142 42.4V19.66C230.142 16.9 231.582 15.52 234.462 15.52C235.902 15.52 236.942 15.84 237.582 16.48C238.222 17.08 238.542 18.08 238.542 19.48C239.262 18.16 240.282 17.18 241.602 16.54C242.962 15.86 244.542 15.52 246.342 15.52C249.782 15.52 251.502 17.02 251.502 20.02C251.502 21.14 251.082 21.98 250.242 22.54C249.402 23.1 248.022 23.38 246.102 23.38C244.222 23.38 242.742 23.56 241.662 23.92C240.582 24.24 239.822 24.86 239.382 25.78C238.982 26.66 238.782 27.94 238.782 29.62V42.4C238.782 45.12 237.342 46.48 234.462 46.48ZM264.027 46.48C260.027 46.48 256.907 45.56 254.667 43.72C252.427 41.84 251.307 39.42 251.307 36.46C251.307 32.98 252.767 30.46 255.687 28.9C258.647 27.34 262.967 26.8 268.647 27.28C268.367 25.44 267.787 24.2 266.907 23.56C266.027 22.88 264.967 22.54 263.727 22.54C262.727 22.54 261.887 22.6 261.207 22.72C260.567 22.8 259.967 22.9 259.407 23.02C258.847 23.14 258.167 23.2 257.367 23.2C256.287 23.2 255.427 23.02 254.787 22.66C254.147 22.26 253.827 21.48 253.827 20.32C253.827 18.68 254.527 17.48 255.927 16.72C257.367 15.92 259.627 15.52 262.707 15.52C267.587 15.52 271.207 16.92 273.567 19.72C275.927 22.48 277.107 26.18 277.107 30.82C277.107 36.18 276.127 40.14 274.167 42.7C272.247 45.22 268.867 46.48 264.027 46.48ZM259.947 36.46C259.947 38.74 261.487 39.88 264.567 39.88C265.567 39.88 266.347 39.7 266.907 39.34C267.467 38.98 267.867 38.26 268.107 37.18C268.387 36.1 268.587 34.48 268.707 32.32C268.507 32.52 268.247 32.66 267.927 32.74C267.607 32.82 267.287 32.86 266.967 32.86C264.327 32.86 262.487 33.12 261.447 33.64C260.447 34.12 259.947 35.06 259.947 36.46ZM296.504 46.48C292.184 46.48 288.824 45.14 286.424 42.46C284.024 39.78 282.824 35.74 282.824 30.34V4.96C282.824 1.84 284.284 0.279999 287.204 0.279999C289.884 0.279999 291.224 1.84 291.224 4.96V10.12C291.224 11.68 291.184 12.96 291.104 13.96C291.064 14.96 290.964 15.84 290.804 16.6C290.684 17.32 290.484 18.1 290.204 18.94C290.964 17.7 292.004 16.82 293.324 16.3C294.684 15.78 296.404 15.52 298.484 15.52C300.884 15.52 303.004 15.98 304.844 16.9C306.684 17.78 308.124 19.28 309.164 21.4C310.204 23.52 310.724 26.38 310.724 29.98C310.724 35.38 309.444 39.48 306.884 42.28C304.364 45.08 300.904 46.48 296.504 46.48ZM296.924 39.28C298.604 39.28 299.904 38.68 300.824 37.48C301.784 36.28 302.264 34.04 302.264 30.76C302.264 28.56 302.044 26.9 301.604 25.78C301.204 24.62 300.604 23.82 299.804 23.38C299.004 22.94 298.044 22.72 296.924 22.72C295.804 22.72 294.844 22.94 294.044 23.38C293.244 23.82 292.624 24.62 292.184 25.78C291.784 26.9 291.584 28.56 291.584 30.76C291.584 34.04 292.044 36.28 292.964 37.48C293.924 38.68 295.244 39.28 296.924 39.28ZM327.132 46.48C323.132 46.48 320.012 45.56 317.772 43.72C315.532 41.84 314.412 39.42 314.412 36.46C314.412 32.98 315.872 30.46 318.792 28.9C321.752 27.34 326.072 26.8 331.752 27.28C331.472 25.44 330.892 24.2 330.012 23.56C329.132 22.88 328.072 22.54 326.832 22.54C325.832 22.54 324.992 22.6 324.312 22.72C323.672 22.8 323.072 22.9 322.512 23.02C321.952 23.14 321.272 23.2 320.472 23.2C319.392 23.2 318.532 23.02 317.892 22.66C317.252 22.26 316.932 21.48 316.932 20.32C316.932 18.68 317.632 17.48 319.032 16.72C320.472 15.92 322.732 15.52 325.812 15.52C330.692 15.52 334.312 16.92 336.672 19.72C339.032 22.48 340.212 26.18 340.212 30.82C340.212 36.18 339.232 40.14 337.272 42.7C335.352 45.22 331.972 46.48 327.132 46.48ZM323.052 36.46C323.052 38.74 324.592 39.88 327.672 39.88C328.672 39.88 329.452 39.7 330.012 39.34C330.572 38.98 330.972 38.26 331.212 37.18C331.492 36.1 331.692 34.48 331.812 32.32C331.612 32.52 331.352 32.66 331.032 32.74C330.712 32.82 330.392 32.86 330.072 32.86C327.432 32.86 325.592 33.12 324.552 33.64C323.552 34.12 323.052 35.06 323.052 36.46ZM354.686 42.46C354.686 45.14 353.286 46.48 350.486 46.48C349.126 46.48 348.046 46.14 347.246 45.46C346.446 44.78 346.046 43.78 346.046 42.46V4.96C346.046 3.52 346.366 2.38 347.006 1.54C347.686 0.699998 348.806 0.279999 350.366 0.279999C351.926 0.279999 353.026 0.699998 353.666 1.54C354.346 2.38 354.686 3.52 354.686 4.96V42.46ZM371.144 42.46C371.144 45.14 369.744 46.48 366.944 46.48C365.584 46.48 364.504 46.14 363.704 45.46C362.904 44.78 362.504 43.78 362.504 42.46V4.96C362.504 1.84 363.964 0.279999 366.884 0.279999C369.764 0.279999 371.204 1.84 371.204 4.96V11.38C371.204 12.5 371.084 13.58 370.844 14.62C370.604 15.66 370.204 16.74 369.644 17.86C370.324 17.02 371.224 16.42 372.344 16.06C373.464 15.7 374.764 15.52 376.244 15.52C378.884 15.52 381.184 16.04 383.144 17.08C385.104 18.12 386.624 19.58 387.704 21.46C388.824 23.3 389.384 25.5 389.384 28.06V42.46C389.384 45.14 387.984 46.48 385.184 46.48C383.824 46.48 382.744 46.14 381.944 45.46C381.144 44.78 380.744 43.78 380.744 42.46V28.42C380.744 26.54 380.304 25.12 379.424 24.16C378.584 23.2 377.404 22.72 375.884 22.72C374.404 22.72 373.244 23.22 372.404 24.22C371.564 25.18 371.144 26.58 371.144 28.42V42.46ZM409.024 46.48C404.744 46.48 401.364 45.26 398.884 42.82C396.404 40.38 395.164 36.44 395.164 31C395.164 25.52 396.404 21.58 398.884 19.18C401.364 16.74 404.744 15.52 409.024 15.52C413.304 15.52 416.684 16.74 419.164 19.18C421.644 21.58 422.884 25.52 422.884 31C422.884 36.44 421.644 40.38 419.164 42.82C416.684 45.26 413.304 46.48 409.024 46.48ZM409.024 39.28C410.144 39.28 411.084 39.06 411.844 38.62C412.604 38.14 413.184 37.3 413.584 36.1C414.024 34.9 414.244 33.2 414.244 31C414.244 28.8 414.024 27.1 413.584 25.9C413.184 24.7 412.604 23.88 411.844 23.44C411.084 22.96 410.144 22.72 409.024 22.72C407.944 22.72 407.004 22.96 406.204 23.44C405.444 23.88 404.844 24.7 404.404 25.9C404.004 27.1 403.804 28.8 403.804 31C403.804 33.2 404.004 34.9 404.404 36.1C404.844 37.3 405.444 38.14 406.204 38.62C407.004 39.06 407.944 39.28 409.024 39.28ZM455.14 46.48C453.7 46.48 452.54 46.04 451.66 45.16C450.82 44.28 450.4 43.16 450.4 41.8C450.4 40.4 450.82 39.26 451.66 38.38C452.54 37.5 453.7 37.06 455.14 37.06C456.54 37.06 457.68 37.5 458.56 38.38C459.44 39.26 459.88 40.4 459.88 41.8C459.88 43.16 459.44 44.28 458.56 45.16C457.68 46.04 456.54 46.48 455.14 46.48ZM429.22 46.48C427.78 46.48 426.62 46.04 425.74 45.16C424.9 44.28 424.48 43.16 424.48 41.8C424.48 40.4 424.9 39.26 425.74 38.38C426.62 37.5 427.78 37.06 429.22 37.06C430.62 37.06 431.76 37.5 432.64 38.38C433.52 39.26 433.96 40.4 433.96 41.8C433.96 43.16 433.52 44.28 432.64 45.16C431.76 46.04 430.62 46.48 429.22 46.48ZM442.18 46.48C440.74 46.48 439.58 46.04 438.7 45.16C437.86 44.28 437.44 43.16 437.44 41.8C437.44 40.4 437.86 39.26 438.7 38.38C439.58 37.5 440.74 37.06 442.18 37.06C443.58 37.06 444.72 37.5 445.6 38.38C446.48 39.26 446.92 40.4 446.92 41.8C446.92 43.16 446.48 44.28 445.6 45.16C444.72 46.04 443.58 46.48 442.18 46.48Z" fill="#EC2B58"/>
</svg>
