<svg width="100" height="100" viewBox="0 0 100 100" fill="none" xmlns="http://www.w3.org/2000/svg">
<rect width="100" height="100" rx="50" fill="#EAEAEA"/>
<g filter="url(#filter0_n_2057_3667)">
<path d="M45.7924 79.4673C45.3999 79.9791 44.0662 79.5515 43.6745 78.9358C42.6234 76.4223 38.6389 71.6571 38.7388 69.1771C38.8549 66.2396 40.094 62.9599 40.1738 59.9333C32.0991 49.0021 26.3087 34.3968 27.4123 21.195C27.7654 16.9621 27.5629 14.4368 32.4073 16.4528C45.2331 21.7884 55.6088 33.5533 62.0133 46.2619C64.8317 47.7444 69.5 48.4328 71.9726 50.3919C72.4958 50.8061 77.1801 58.0182 77.3677 58.7102C77.673 59.8327 77.4125 60.0873 76.4316 60.2529C74.2038 60.6277 70.0754 59.5005 67.6754 59.2655C68.7377 62.1625 67.4906 62.9907 65.49 64.2938L67.9523 68.2386L66.6841 69.626C69.7691 71.0621 73.9681 74.5262 74.8311 78.1445C75.4372 80.6859 73.4906 79.5174 71.9613 79.5873C72.5927 80.9963 74.51 85.874 73.0975 86.6735C71.1152 87.7948 67.0754 82.4702 66.7453 82.6051C66.3575 83.3406 66.659 85.5465 65.3509 85.1229C62.6902 84.2613 59.1175 76.7765 59.7976 73.9782C59.5428 73.3649 58.2866 74.8608 57.4071 74.5058C56.3985 74.0979 55.4583 71.3519 54.9289 71.175C52.7412 72.123 51.2045 73.2352 49.1727 70.4946L45.7909 79.4682L45.7924 79.4673ZM43.9563 24.8281C42.1067 22.9369 30.8698 15.9111 29.3151 16.88C28.6915 17.2676 28.3667 22.3264 28.3307 23.4268C28.2294 26.6227 28.6951 29.8815 29.3401 33.0788L43.9537 24.8273L43.9563 24.8281ZM44.867 25.6245L29.7798 34.21C29.4948 34.3636 29.6049 34.6253 29.6057 34.8921C29.6058 35.9998 30.8818 40.05 31.3213 41.3329C33.9548 49.0138 38.7039 56.5675 43.7599 62.9286C45.4216 65.019 48.4487 68.7823 50.3742 70.3897C50.8685 70.8018 51.1875 71.1118 51.8367 71.1423C52.8075 71.1899 59.0822 67.2519 60.3134 66.4573C61.6221 65.6116 66.2059 62.7866 66.8987 61.7964C67.2676 61.2699 66.1905 58.3023 65.8907 57.4438C65.372 55.9578 64.6396 54.2457 64.0056 52.7828C59.5885 42.5886 53.2836 32.8136 44.8643 25.6236L44.867 25.6245ZM44.9589 78.591L48.2468 69.8639L41.0118 61.238L39.9382 70.2438C40.361 71.0599 44.4951 78.7891 44.9578 78.5893L44.9589 78.591ZM76.1284 59.2544C76.4044 58.8556 76.1558 58.6986 75.987 58.3493C75.6712 57.6906 71.4729 51.411 71.1264 51.1223C69.2264 49.5502 64.9443 49.04 62.7625 47.5811L67.144 58.052L76.13 59.2534L76.1284 59.2544ZM57.8954 73.5489L66.6081 68.2146L64.8466 64.8499L55.9486 70.3914L57.2121 72.8742L57.8964 73.5507L57.8954 73.5489ZM70.7123 79.2872C70.607 78.9697 70.5291 78.4361 70.8362 78.2522L73.8211 78.4984C73.4637 75.5481 67.686 70.2281 65.358 70.3859C65.0138 70.4088 60.9076 72.8926 60.7515 73.1907C59.7223 75.1792 62.9304 82.6173 65.2399 83.8793L66.0851 80.4934C66.5116 80.3249 71.1536 86.4401 72.6278 85.5242C72.3436 84.2036 72.1926 82.8684 71.7889 81.564C71.523 80.7021 70.9126 79.8874 70.7123 79.2872Z" fill="#EE4069" stroke="#EE4069" stroke-miterlimit="10"/>
<path d="M39.3354 44.5903C38.246 41.6485 39.9072 38.0585 42.8915 37.0344C47.038 35.6104 51.6556 39.6752 50.7023 43.9904C49.3378 50.1732 41.4394 50.2741 39.3354 44.5903ZM40.2262 41.2954C38.7292 46.9128 47.3226 50.7196 49.5219 44.4415C51.6058 38.4921 41.961 34.7911 40.2262 41.2954Z" fill="#EE4069" stroke="#EE4069" stroke-miterlimit="10"/>
<path d="M50.8916 53.4561L51.8043 53.2886C53.5728 56.4071 56.3933 59.9492 57.6246 63.2913C57.987 64.2766 57.3206 64.7244 56.8624 64.1538L50.8916 53.4561Z" fill="#EE4069" stroke="#EE4069" stroke-miterlimit="10"/>
</g>
<defs>
<filter id="filter0_n_2057_3667" x="12" y="5.78955" width="76.6172" height="91.8086" filterUnits="userSpaceOnUse" color-interpolation-filters="sRGB">
<feFlood flood-opacity="0" result="BackgroundImageFix"/>
<feBlend mode="normal" in="SourceGraphic" in2="BackgroundImageFix" result="shape"/>
<feTurbulence type="fractalNoise" baseFrequency="0.10000000149011612 0.10000000149011612" stitchTiles="stitch" numOctaves="3" result="noise" seed="7944" />
<feColorMatrix in="noise" type="luminanceToAlpha" result="alphaNoise" />
<feComponentTransfer in="alphaNoise" result="coloredNoise1">
<feFuncA type="discrete" tableValues="1 1 1 1 1 1 1 1 1 1 1 1 1 1 1 1 1 1 1 1 1 1 1 1 1 1 1 1 1 1 1 1 1 1 1 1 1 1 1 1 1 1 1 1 1 1 1 1 1 1 1 0 0 0 0 0 0 0 0 0 0 0 0 0 0 0 0 0 0 0 0 0 0 0 0 0 0 0 0 0 0 0 0 0 0 0 0 0 0 0 0 0 0 0 0 0 0 0 0 0 "/>
</feComponentTransfer>
<feComposite operator="in" in2="shape" in="coloredNoise1" result="noise1Clipped" />
<feFlood flood-color="rgba(0, 0, 0, 0.25)" result="color1Flood" />
<feComposite operator="in" in2="noise1Clipped" in="color1Flood" result="color1" />
<feMerge result="effect1_noise_2057_3667">
<feMergeNode in="shape" />
<feMergeNode in="color1" />
</feMerge>
</filter>
</defs>
</svg>
