<svg width="33" height="40" viewBox="0 0 33 40" fill="none" xmlns="http://www.w3.org/2000/svg">
<path d="M0.304688 26.1268C2.40522 21.0883 1.82113 15.3471 3.22177 10.1581C4.94784 3.76334 11.2114 -0.451058 17.9238 1.25782C19.0633 1.54804 22.2703 2.32971 22.9879 3.12802C23.1232 3.27853 23.0742 3.45316 23.2762 3.61449C23.5348 3.82072 23.8586 3.72176 23.993 3.79577C24.0479 3.82571 24.7174 4.57412 24.8315 4.70302C26.7689 6.87674 27.8061 9.85459 27.5195 12.7476C27.4316 13.6324 27.0326 14.9937 27.0563 15.7662C27.0969 17.1001 27.5981 18.5495 27.61 19.9274C27.6193 20.9727 27.1975 22.1552 27.211 23.0857C27.2879 28.3005 30.1222 33.2941 31.1466 38.3226C31.2929 38.6843 32.5456 38.9246 32.2624 39.535C29.5761 37.4844 26.2778 36.3908 23.1866 35.0661C23.1485 40.3882 16.546 40.2734 12.7617 39.1699C9.86995 38.3276 7.17771 36.5854 5.65281 33.9801L0.304688 36.3759V26.1268ZM26.5119 12.5639C26.2322 10.3818 25.3522 8.22305 23.8932 6.55243C22.8341 5.34 21.6067 4.94583 20.2923 4.09181C19.693 5.02317 18.4217 4.95664 17.4175 5.33834C14.3998 6.48673 11.5597 9.66666 10.3957 12.6013C10.0001 13.5983 9.53437 15.9234 8.63752 16.4947C7.3417 17.3204 7.05852 15.3355 6.03826 15.1251C5.52179 15.0186 5.1262 15.1841 4.76273 15.5284C3.43901 16.7849 4.25894 19.9208 5.28004 21.1881C5.42121 21.3635 6.28678 22.2192 6.48542 22.0421C6.75253 20.8455 7.85394 21.3968 7.81675 22.4271L8.67978 22.2284C9.71695 26.2964 14.3457 29.1695 18.2831 30.0335C22.5011 30.959 24.206 28.2182 25.9794 24.9451C28.1062 21.0184 26.9785 19.1881 26.6709 15.2215C26.6168 14.5222 26.7385 13.8087 26.5787 13.116C25.8366 12.7601 25.0403 12.6503 24.2161 12.7277C23.8079 12.7659 22.8764 13.1252 22.6439 13.1035C22.1511 13.0578 22.3861 12.3593 22.6388 12.0982C23.4157 11.2957 25.2601 11.3514 26.0817 12.1023L26.5136 12.5622L26.5119 12.5639ZM7.00443 21.6621C6.72379 21.7411 6.64011 22.8587 7.14982 22.8629C7.68235 22.8678 7.50061 21.5215 7.00443 21.6621ZM19.9407 30.5191C18.4826 30.5233 16.9805 30.0235 15.6407 29.4763C13.53 28.614 11.6831 27.3841 10.1641 25.701L9.06777 24.1235C9.3408 25.8706 9.29177 27.7882 8.9638 29.5312C8.67218 31.0829 8.25968 32.1997 6.94779 33.171C6.65786 33.3855 6.32313 33.5361 6.03404 33.7331C5.97402 33.7739 5.90894 33.7248 5.94613 33.8587C5.99008 34.0175 6.37469 34.5331 6.49979 34.7052C9.09566 38.271 14.8512 40.1994 19.1453 39.2523C21.4757 38.7384 22.9753 37.4237 22.8256 34.9231L20.6059 33.9884L20.8012 34.7934C20.5484 35.1676 20.3025 34.361 20.2306 34.1265C19.8798 32.9764 19.9458 31.7083 19.9407 30.5191Z" fill="#EE4069"/>
<path d="M12.5117 13.6435C12.5886 12.871 13.4094 12.1359 14.1009 11.8573C14.9943 11.4973 18.0238 11.2528 18.5673 12.1858C18.717 12.4427 18.7389 12.9259 18.4017 13.0165C18.2267 13.0631 17.1862 12.7471 16.8523 12.7197C15.3493 12.5983 13.8304 12.9492 12.5126 13.6435H12.5117Z" fill="#EE4069"/>
<path d="M16.6567 15.2618C16.6491 15.4281 16.7835 15.5179 16.8089 15.6884C17.0624 17.3989 15.1462 17.448 15.333 15.9237C15.3634 15.6751 15.5274 15.4971 15.5612 15.2618C15.508 15.2086 14.7852 15.5853 14.6762 15.6609C14.3871 15.8605 14.2316 16.2447 13.8411 16.1857C13.6593 16.0144 14.5376 15.3574 14.6762 15.2751C15.5037 14.7853 16.4707 14.7246 17.3363 15.1703C17.6178 15.315 18.2408 15.7067 17.8697 16.0302C17.5451 15.6792 17.1292 15.3857 16.6575 15.2618H16.6567Z" fill="#EE4069"/>
<path d="M22.6512 20.1663C22.849 19.9634 22.8701 19.763 22.7974 19.4977C22.6495 18.9564 21.805 17.882 21.516 17.2159C21.0646 16.1764 20.7577 14.9856 21.5447 14.0293L21.7391 14.1465C21.1491 15.1777 21.3139 15.8862 21.7501 16.9082C22.0891 17.7015 22.7306 18.5347 23.0299 19.2699C23.597 20.6619 21.5405 21.0461 20.5253 21.1176C20.2506 21.1367 19.101 21.0652 19.8262 20.8149C20.2244 20.6777 20.9538 20.7118 21.4297 20.622C21.7577 20.5605 22.4255 20.3983 22.6503 20.1671L22.6512 20.1663Z" fill="#EE4069"/>
<path d="M16.3877 22.6636C18.7359 23.7679 21.4695 24.1305 23.7501 22.6711L23.9344 22.854C23.9344 23.0037 23.4061 23.2665 23.2556 23.343C21.4213 24.276 19.1551 24.0964 17.2625 23.4112C17.047 23.333 16.2626 23.0661 16.2617 22.854L16.3877 22.6636Z" fill="#EE4069"/>
<path d="M24.48 15.1854C25.4775 16.94 23.0735 17.5604 23.5401 15.4157L23.0735 15.9188L22.8359 15.8373C23.1495 14.8528 24.4766 14.5892 25.2873 15.1197C25.3997 15.1929 26.0489 15.7276 25.6905 15.7999C25.5848 15.8215 24.8097 15.0174 24.4792 15.1846L24.48 15.1854Z" fill="#EE4069"/>
<path d="M6.87889 18.8798C6.84508 18.8565 6.63376 18.2453 6.58304 18.1272C6.55515 18.0624 6.59065 17.8902 6.44526 17.9593C6.1342 18.1064 5.92034 19.2532 6.28297 19.5043C6.46808 19.6324 6.79014 19.5193 6.71744 19.8843C5.33963 19.9875 5.67182 18.1555 6.38356 17.536L5.81975 16.272C5.45628 16.44 5.10126 16.6728 5.06575 17.1011L4.7623 17.1102C4.46814 16.8292 5.89667 15.3806 6.22971 16.2429L7.17559 18.706C7.2001 18.8657 6.95751 18.9339 6.87805 18.8798H6.87889Z" fill="#EE4069"/>
<path d="M22.2866 24.972C22.6162 25.3088 21.1505 25.5732 20.995 25.5866C20.2934 25.6481 19.5927 25.5516 18.9232 25.3554C18.8505 24.8298 19.5555 25.2323 19.9105 25.2697C20.7583 25.3587 21.4869 25.2057 22.2866 24.9712V24.972Z" fill="#EE4069"/>
</svg>
