<svg width="328" height="130" viewBox="0 0 328 130" fill="none" xmlns="http://www.w3.org/2000/svg">
<path d="M58.9755 102.214C55.8201 102.104 54.2923 100.62 54.3921 97.7632L55.6987 60.346C55.7508 58.8536 56.1512 57.7789 56.9 57.1219C57.6487 56.465 58.8119 56.1641 60.3896 56.2192C63.5024 56.3279 65.0089 57.8107 64.9091 60.6676L63.6025 98.0848C63.5518 99.5346 63.1514 100.609 62.4012 101.309C61.6951 101.967 60.5532 102.269 58.9755 102.214ZM81.584 98.7127C81.4842 101.57 79.9419 102.946 76.9571 102.842C75.5073 102.791 74.3687 102.388 73.5412 101.634C72.7137 100.879 72.3245 99.7982 72.3736 98.3911L73.2961 71.9752C73.4718 66.9436 74.6703 63.1858 76.8917 60.7018C79.1572 58.1767 82.4007 56.9878 86.6221 57.1352C89.7349 57.2439 92.2923 57.9736 94.2944 59.3243C96.2965 60.675 97.5969 62.5562 98.1958 64.9679C98.9614 62.6039 100.39 60.818 102.481 59.6102C104.573 58.4025 107.218 57.8544 110.416 57.9661C114.765 58.118 117.94 59.4883 119.942 62.0771C121.945 64.6232 122.856 68.4973 122.674 73.6995L121.774 99.4758C121.713 101.224 121.328 102.47 120.619 103.214C119.91 103.957 118.745 104.301 117.125 104.244C115.504 104.188 114.324 103.762 113.583 102.968C112.844 102.131 112.504 100.86 112.563 99.1542L113.481 72.8662C113.629 68.6448 111.89 66.4708 108.266 66.3442C106.432 66.2802 105.046 66.8508 104.108 68.0561C103.17 69.2188 102.656 71.122 102.563 73.7657L101.712 98.1349C101.651 99.8831 101.266 101.129 100.557 101.873C99.8482 102.617 98.6835 102.96 97.0632 102.904C95.4428 102.847 94.2623 102.421 93.5216 101.627C92.7823 100.79 92.4425 99.5188 92.502 97.8132L93.353 73.4441C93.5302 68.3698 91.8066 65.7694 88.1821 65.6429C84.5577 65.5163 82.6718 67.5637 82.5243 71.7851L81.584 98.7127ZM139.549 100.737C139.449 103.594 137.907 104.97 134.922 104.866C133.472 104.815 132.333 104.413 131.506 103.658C130.678 102.903 130.289 101.822 130.338 100.415L131.292 73.1039C131.459 68.3282 132.842 64.7903 135.441 62.4902C138.042 60.1476 142.305 59.0797 148.233 59.2867C152.625 59.4401 156.016 60.7326 158.407 63.1642C160.841 65.5973 161.967 69.4149 161.786 74.6171C161.628 79.137 160.313 82.5492 157.842 84.8537C155.414 87.1596 152.046 88.2374 147.739 88.087C145.309 88.0022 143.532 88.1323 142.41 88.4773C141.332 88.7812 140.627 89.4183 140.294 90.3886C140.006 91.3178 139.829 92.6991 139.765 94.5327L139.549 100.737ZM139.619 82.2321C140.145 81.8235 140.648 81.4782 141.128 81.1961C141.609 80.8714 142.236 80.6371 143.009 80.4933C143.827 80.3084 144.897 80.2391 146.218 80.2852C148.052 80.3492 149.507 80.2506 150.583 79.9894C151.661 79.6855 152.429 79.0932 152.887 78.2127C153.387 77.3336 153.667 76.0413 153.727 74.3356C153.806 72.0757 153.586 70.4243 153.067 69.3816C152.593 68.2977 151.87 67.5894 150.9 67.2567C149.974 66.8828 148.829 66.672 147.464 66.6244C144.991 66.538 143.227 66.9247 142.172 67.7844C141.16 68.6456 140.616 70.1849 140.538 72.4022C140.483 73.9799 140.38 75.7053 140.229 77.5785C140.079 79.4518 139.875 81.0029 139.619 82.2321ZM175.652 101.998C175.552 104.855 174.01 106.231 171.025 106.127C169.575 106.076 168.436 105.673 167.609 104.919C166.781 104.164 166.392 103.083 166.441 101.676L167.326 76.3475C167.531 70.463 168.872 66.3046 171.348 63.8722C173.823 61.4398 177.598 60.3122 182.673 60.4894C187.875 60.671 191.668 62.0843 194.052 64.7291C196.435 67.3739 197.526 71.5959 197.323 77.395L196.439 102.724C196.339 105.58 194.797 106.957 191.812 106.853C190.362 106.802 189.224 106.399 188.396 105.645C187.569 104.89 187.179 103.809 187.229 102.402L187.767 86.9873C186.931 87.6839 186.014 88.2709 185.016 88.7484C184.06 89.2273 182.942 89.4444 181.663 89.3998C179.787 89.3342 178.368 89.6262 177.406 90.2757C176.487 90.9267 175.996 92.1263 175.935 93.8746L175.652 101.998ZM175.922 83.2437C176.628 82.5852 177.457 82.0805 178.409 81.7295C179.403 81.38 180.582 81.2291 181.947 81.2767C183.567 81.3333 184.808 81.2486 185.67 81.0225C186.574 80.7979 187.21 80.3291 187.576 79.6162C187.942 78.9032 188.15 77.8431 188.199 76.436C188.31 73.2806 187.937 71.1116 187.082 69.929C186.228 68.7038 184.65 68.051 182.347 67.9706C180.215 67.8961 178.723 68.4631 177.869 69.6713C177.06 70.8385 176.599 73.0424 176.486 76.2831C176.428 77.9461 176.357 79.3525 176.274 80.5023C176.191 81.6521 176.074 82.5659 175.922 83.2437ZM214.002 84.8937C213.825 89.9679 214.316 93.6353 215.475 95.8958C216.636 98.1136 218.432 99.265 220.862 99.3499C222.397 99.4035 223.744 99.3438 224.903 99.1708C226.063 98.9551 227.112 98.8637 228.05 98.8964C229.756 98.956 230.98 99.3616 231.722 100.113C232.466 100.822 232.818 101.731 232.78 102.84C232.729 104.29 232.157 105.38 231.064 106.11C230.014 106.842 228.674 107.329 227.043 107.571C225.455 107.814 223.829 107.907 222.166 107.849C217.561 107.688 213.924 106.707 211.254 104.906C208.628 103.106 206.775 100.523 205.697 97.1553C204.664 93.7465 204.234 89.5476 204.408 84.5586C204.583 79.5697 205.306 75.3683 206.577 71.9546C207.894 68.4998 209.926 65.9238 212.675 64.2267C215.466 62.5311 219.165 61.7637 223.77 61.9245C225.433 61.9826 227.048 62.1884 228.615 62.542C230.225 62.8971 231.529 63.4763 232.525 64.2795C233.564 65.0843 234.059 66.2116 234.008 67.6613C233.971 68.7274 233.556 69.6094 232.763 70.3075C231.97 71.0056 230.721 71.3248 229.015 71.2653C228.077 71.2325 227.036 71.0894 225.892 70.836C224.75 70.54 223.411 70.3652 221.876 70.3116C218.891 70.2073 216.866 71.3533 215.8 73.7496C214.779 76.1047 214.18 79.8194 214.002 84.8937ZM251.806 108.948C250.74 108.91 249.661 108.638 248.569 108.13C247.52 107.581 247.016 106.752 247.054 105.644L248.1 75.71C248.147 74.3455 248.521 73.4193 249.221 72.9315C249.921 72.4436 250.487 72.1432 250.918 72.0301L238.573 71.5991C237.55 71.5633 236.798 71.0888 236.318 70.1755C235.881 69.221 235.68 68.2534 235.715 67.2727C235.752 66.2066 236.041 65.2562 236.583 64.4212C237.126 63.5436 237.887 63.122 238.868 63.1562L267.459 64.1546C268.44 64.1889 269.17 64.6626 269.651 65.576C270.132 66.4467 270.355 67.415 270.318 68.481C270.283 69.4618 269.994 70.4122 269.45 71.3325C268.949 72.2115 268.187 72.6332 267.164 72.5975L257.442 72.258L256.265 105.965C256.228 107.031 255.752 107.805 254.839 108.285C253.968 108.767 252.957 108.988 251.806 108.948ZM286.66 110.165C282.951 110.035 279.82 109.2 277.27 107.66C274.721 106.076 272.823 103.577 271.576 100.16C270.372 96.7455 269.87 92.1598 270.071 86.4033C270.272 80.6469 271.092 76.1287 272.53 72.8489C274.011 69.5706 276.076 67.2733 278.726 65.9569C281.376 64.6406 284.556 64.0472 288.266 64.1768C292.019 64.3078 295.149 65.1216 297.659 66.6181C300.211 68.1161 302.089 70.5511 303.295 73.9232C304.544 77.2969 305.067 81.8619 304.866 87.6184C304.665 93.3749 303.824 97.9136 302.341 101.235C300.902 104.557 298.856 106.919 296.202 108.321C293.593 109.681 290.413 110.296 286.66 110.165ZM286.955 101.722C288.661 101.781 290.125 101.427 291.347 100.659C292.612 99.8915 293.601 98.4532 294.315 96.3435C295.072 94.2353 295.519 91.2197 295.656 87.2968C295.794 83.3312 295.558 80.3131 294.947 78.2425C294.381 76.1308 293.492 74.6909 292.281 73.9228C291.113 73.1136 289.677 72.6792 287.971 72.6196C286.308 72.5616 284.845 72.8947 283.582 73.6191C282.32 74.3008 281.311 75.6744 280.556 77.74C279.845 79.7644 279.42 82.7594 279.282 86.725C279.145 90.6479 279.359 93.6866 279.924 95.841C280.532 97.9968 281.44 99.5014 282.648 100.355C283.856 101.208 285.292 101.664 286.955 101.722Z" fill="#EC2B58"/>
<rect x="0.310287" y="-0.289347" width="11.4" height="11.4" transform="matrix(0.999391 0.0348995 0.0348995 -0.999391 39.6978 42.4033)" stroke="#121212" stroke-width="0.6"/>
<rect x="0.310287" y="-0.289347" width="11.4" height="11.4" transform="matrix(0.999391 0.0348995 0.0348995 -0.999391 37.0103 119.356)" stroke="#121212" stroke-width="0.6"/>
<rect x="0.310287" y="-0.289347" width="11.4" height="11.4" transform="matrix(0.999391 0.0348995 0.0348995 -0.999391 314.53 52.0005)" stroke="#121212" stroke-width="0.6"/>
<rect x="0.310287" y="-0.289347" width="11.4" height="11.4" transform="matrix(0.999391 0.0348995 0.0348995 -0.999391 312.842 128.989)" stroke="#121212" stroke-width="0.6"/>
<line x1="51.8323" y1="39.0143" x2="314.672" y2="48.1929" stroke="#121212" stroke-width="0.8"/>
<line x1="49.2151" y1="113.968" x2="313.054" y2="123.182" stroke="#121212" stroke-width="0.8"/>
<line x1="317.846" y1="117.746" x2="320.115" y2="52.7854" stroke="#121212" stroke-width="0.8"/>
<line x1="43.0143" y1="108.149" x2="45.2828" y2="43.1882" stroke="#121212" stroke-width="0.8"/>
<g clip-path="url(#clip0_1626_3769)">
<path d="M5.86521 33.1168L40.8873 36.3986L40.937 36.4028C41.6388 36.4529 42.3406 36.3045 42.9622 35.9747C43.5837 35.6448 44.0999 35.1467 44.4517 34.5373C44.8035 33.9279 44.9768 33.2319 44.9517 32.5287C44.9266 31.8255 44.7042 31.1435 44.3099 30.5608L44.2814 30.5198L23.9283 1.83071C23.4889 1.19322 22.8631 0.707328 22.1366 0.439742C21.4101 0.172156 20.6186 0.13599 19.8707 0.336207L19.8073 0.353192C19.0469 0.571144 18.3749 1.02395 17.8874 1.64686C17.3999 2.26978 17.1219 3.03089 17.0931 3.82136L17.0908 3.87825L16.9267 18.6458L4.21973 26.1717L4.17157 26.202C3.50085 26.6198 2.97924 27.2388 2.6812 27.9706C2.38315 28.7025 2.3239 29.5098 2.51191 30.2773C2.69991 31.0448 3.12556 31.7333 3.7281 32.2445C4.33064 32.7557 5.07927 33.0636 5.86715 33.1241L5.86521 33.1168ZM20.3084 21.8704C20.6409 21.6735 20.917 21.3942 21.1102 21.0596C21.3034 20.725 21.4072 20.3462 21.4115 19.9598L21.5647 6.27447L39.6473 31.7635L8.53222 28.8421L20.3084 21.8704Z" fill="black"/>
</g>
<defs>
<clipPath id="clip0_1626_3769">
<rect width="48" height="48" fill="white" transform="translate(48 48) rotate(180)"/>
</clipPath>
</defs>
</svg>
