<svg width="272" height="162" viewBox="0 0 272 162" fill="none" xmlns="http://www.w3.org/2000/svg">
<path d="M78.5204 2.97367C99.0074 2.97367 119.494 2.95425 139.981 2.98532C146.6 2.99309 152.268 7.26927 153.983 13.5185C154.354 14.8701 154.503 16.3227 154.503 17.7286C154.527 47.8367 154.511 77.9486 154.511 108.057C154.511 108.573 154.39 109.195 154.628 109.579C154.914 110.037 155.497 110.476 156.01 110.554C156.272 110.593 156.766 109.87 156.953 109.412C157.114 109.024 156.989 108.519 156.989 108.064C156.989 77.6301 156.989 47.1958 156.989 16.7654C156.989 8.64806 150.62 1.33466 142.498 0.724889C136.275 0.251053 129.996 0.328731 123.745 0.320963C88.6387 0.289892 53.536 0.301543 18.4334 0.313195C10.2997 0.313195 3.75121 4.48839 1.11302 11.4678C0.467178 13.1806 0.0561676 15.0953 0.0522614 16.9208C-0.00645447 54.0898 -0.0181885 91.2549 0.0248718 128.424C0.0366058 138.235 8.34256 145.222 16.0692 145.253C26.5084 145.296 36.9476 145.303 47.3868 145.307C70.4846 145.315 93.5823 145.315 116.68 145.307C117.6 145.307 118.931 145.645 118.931 144.196C118.931 142.787 117.674 142.845 116.594 142.845C83.6441 142.853 50.6943 142.853 17.7445 142.853C9.06277 142.853 2.6787 136.638 2.67087 127.997C2.63956 90.9597 2.64346 53.9189 2.67087 16.8819C2.6787 9.39377 9.19194 3.01639 16.8638 3.00086C37.4173 2.95425 57.9708 2.98532 78.5204 2.98532V2.97756V2.97367Z" fill="black"/>
<path d="M51.2962 102.284C47.7254 105.893 44.2484 109.405 40.7715 112.921C40.4508 113.245 39.9814 113.51 39.8328 113.896C39.5981 114.527 39.5708 115.237 39.4573 115.911C40.177 115.81 41.1469 115.974 41.5732 115.568C45.101 112.2 48.5702 108.762 51.9689 105.262C53.0132 104.186 53.6781 104.014 55.0078 104.977C64.3827 111.756 74.9387 114.656 86.4256 113.522C93.3443 112.84 99.7429 110.294 105.578 106.458C106.114 106.108 106.646 105.753 107.217 105.375C111.597 110.165 115.923 114.913 120.268 119.646C129.643 129.843 139.03 140.032 148.409 150.226C151.401 153.481 154.389 156.743 157.361 160.018C159.313 162.162 160.979 162.263 162.989 160.279C166.321 156.989 169.646 153.683 172.958 150.37C174.992 148.331 175.016 146.963 172.861 144.963C164.706 137.393 156.512 129.87 148.338 122.327C138.537 113.28 128.744 104.229 118.95 95.1775C118.716 94.9592 118.516 94.7097 118.242 94.4134C125.454 83.4404 127.629 71.5241 124.653 58.8087C122.146 48.1007 116.212 39.5484 107.248 33.1439C89.8517 20.7169 63.4714 23.5118 48.8557 39.3925C34.2126 55.3043 31.2675 82.3217 51.3001 102.287L51.2962 102.284ZM123.209 69.232C124.027 93.7625 101.436 112.138 80.6333 111.265C56.8851 110.267 39.4339 92.1993 39.6529 69.2165C39.8993 43.4581 61.027 27.6399 82.5106 27.7997C104.424 27.9634 123.64 46.1673 123.205 69.2359L123.209 69.232ZM160.017 159.23C143.16 140.886 126.221 122.448 109.603 104.361C112.282 101.73 114.683 99.3757 117.171 96.9316C135.205 113.533 153.645 130.509 171.867 147.287C167.819 151.368 163.99 155.223 160.017 159.23Z" fill="black"/>
<path d="M112.318 70.5787C112.485 57.0696 102.954 45.2214 90.8269 40.7209C90.1403 40.4642 89.1705 40.9816 88.3287 41.1371C88.8524 41.8101 89.2403 42.8292 89.9231 43.1054C99.9355 47.1507 106.542 54.2417 109.118 64.8063C110.716 71.3567 109.618 77.627 106.232 83.4694C106.038 83.8039 105.634 84.1034 105.615 84.4341C105.576 85.0992 105.739 85.7799 105.82 86.4529C106.468 86.2739 107.512 86.2856 107.698 85.8888C109.137 82.8198 110.604 79.7352 111.655 76.5262C112.264 74.6708 112.116 72.5703 112.314 70.5787H112.318Z" fill="black"/>
<path d="M267.126 82.6783C265.997 82.6783 264.867 82.6783 263.734 82.6783C242.361 82.6783 220.989 82.6783 199.616 82.6826C199.249 82.6826 198.882 82.7041 198.516 82.6698C197.665 82.5882 196.463 83.0215 196.481 81.3441C196.503 79.7268 197.665 80.0142 198.541 80.0142C220.952 80.0056 243.362 80.0056 265.777 80.0056L267.698 80.0056C267.811 79.7911 267.929 79.5766 268.042 79.3621C267.254 78.6071 266.378 77.9464 265.722 77.0583C265.439 76.6765 265.623 75.8271 265.597 75.1922C266.154 75.1793 266.924 74.8876 267.229 75.205C268.772 76.8224 270.228 78.5599 271.621 80.3574C271.841 80.6405 271.742 81.6444 271.478 81.9876C270.209 83.6264 268.9 85.2481 267.456 86.6638C267.009 87.1014 266.085 86.8697 265.377 86.9426C265.513 86.2133 265.491 85.3639 265.821 84.7933C266.195 84.1455 266.884 83.7508 267.438 83.2446C267.331 83.0558 267.228 82.8671 267.122 82.674L267.126 82.6783Z" fill="#EC2B58"/>
</svg>
