<svg width="707" height="61" viewBox="0 0 707 61" fill="none" xmlns="http://www.w3.org/2000/svg">
<path d="M8.66 42.4419C8.66 45.1219 7.26 46.4619 4.46 46.4619C3.1 46.4619 2.02 46.1219 1.22 45.4419C0.42 44.7619 0.0200001 43.7619 0.0200001 42.4419V17.6619C0.0200001 12.9419 1.02 9.38193 3.02 6.98193C5.06 4.54193 8.06 3.32193 12.02 3.32193C14.94 3.32193 17.36 3.92193 19.28 5.12193C21.2 6.32193 22.48 8.04193 23.12 10.2819C23.76 8.04193 25.04 6.32193 26.96 5.12193C28.88 3.92193 31.34 3.32193 34.34 3.32193C38.42 3.32193 41.44 4.50193 43.4 6.86193C45.36 9.18193 46.34 12.7819 46.34 17.6619V41.8419C46.34 43.4819 46.02 44.6619 45.38 45.3819C44.74 46.1019 43.66 46.4619 42.14 46.4619C40.62 46.4619 39.5 46.1019 38.78 45.3819C38.06 44.6219 37.7 43.4419 37.7 41.8419V17.1819C37.7 13.2219 36 11.2419 32.6 11.2419C30.88 11.2419 29.6 11.8219 28.76 12.9819C27.92 14.1019 27.5 15.9019 27.5 18.3819V41.2419C27.5 42.8819 27.18 44.0619 26.54 44.7819C25.9 45.5019 24.82 45.8619 23.3 45.8619C21.78 45.8619 20.66 45.5019 19.94 44.7819C19.22 44.0219 18.86 42.8419 18.86 41.2419V18.3819C18.86 13.6219 17.16 11.2419 13.76 11.2419C10.36 11.2419 8.66 13.2219 8.66 17.1819V42.4419ZM67.8406 46.4619C63.8406 46.4619 60.7006 45.8019 58.4206 44.4819C56.1806 43.1619 54.5806 41.3419 53.6206 39.0219C52.7006 36.7019 52.2406 34.0419 52.2406 31.0419C52.2406 25.5219 53.4606 21.5619 55.9006 19.1619C58.3406 16.7219 61.6206 15.5019 65.7406 15.5019C68.2206 15.5019 70.4206 15.9219 72.3406 16.7619C74.2606 17.6019 75.7606 18.8019 76.8406 20.3619C77.9206 21.8819 78.4606 23.7419 78.4606 25.9419C78.4606 32.3419 73.9006 35.5419 64.7806 35.5419H61.3006C61.6206 36.7819 62.1406 37.7619 62.8606 38.4819C63.6206 39.1619 64.9406 39.5019 66.8206 39.5019C67.8606 39.5019 68.7006 39.4419 69.3406 39.3219C69.9806 39.2019 70.5806 39.0819 71.1406 38.9619C71.7406 38.8419 72.4206 38.7819 73.1806 38.7819C74.2606 38.7819 75.1206 38.9819 75.7606 39.3819C76.4006 39.7419 76.7206 40.5019 76.7206 41.6619C76.7206 43.3019 76.0006 44.5219 74.5606 45.3219C73.1606 46.0819 70.9206 46.4619 67.8406 46.4619ZM60.8806 31.1019C61.2006 30.6619 61.5606 30.3819 61.9606 30.2619C62.3606 30.1019 62.9806 30.0219 63.8206 30.0219C66.1806 30.0219 67.8006 29.8019 68.6806 29.3619C69.6006 28.8819 70.0606 28.0419 70.0606 26.8419C70.0606 25.3219 69.6406 24.1619 68.8006 23.3619C67.9606 22.5219 66.9006 22.1019 65.6206 22.1019C64.1406 22.1019 62.9806 22.7219 62.1406 23.9619C61.3006 25.2019 60.8806 27.5819 60.8806 31.1019ZM109.587 46.4619C104.707 46.4619 101.087 45.0619 98.727 42.2619C96.367 39.4219 95.187 35.6819 95.187 31.0419C95.187 26.4019 96.367 22.6619 98.727 19.8219C101.087 16.9419 104.707 15.5019 109.587 15.5019C112.667 15.5019 114.907 15.8219 116.307 16.4619C117.747 17.1019 118.467 18.2419 118.467 19.8819C118.467 21.0419 118.147 21.8819 117.507 22.4019C116.867 22.9219 116.007 23.1819 114.927 23.1819C114.167 23.1819 113.567 23.1219 113.127 23.0019C112.687 22.8819 112.207 22.7819 111.687 22.7019C111.207 22.5819 110.447 22.5219 109.407 22.5219C108.007 22.5219 106.887 22.9419 106.047 23.7819C105.247 24.6219 104.667 25.7019 104.307 27.0219C103.987 28.3019 103.827 29.6419 103.827 31.0419C103.827 32.4019 103.947 33.7419 104.187 35.0619C104.467 36.3419 105.007 37.4019 105.807 38.2419C106.607 39.0419 107.827 39.4419 109.467 39.4419C110.987 39.4419 112.107 39.3419 112.827 39.1419C113.547 38.9019 114.247 38.7819 114.927 38.7819C116.007 38.7819 116.867 38.9819 117.507 39.3819C118.147 39.7419 118.467 40.5019 118.467 41.6619C118.467 43.3019 117.747 44.5219 116.307 45.3219C114.907 46.0819 112.667 46.4619 109.587 46.4619ZM136.413 46.4619C132.133 46.4619 128.753 45.2419 126.273 42.8019C123.793 40.3619 122.553 36.4219 122.553 30.9819C122.553 25.5019 123.793 21.5619 126.273 19.1619C128.753 16.7219 132.133 15.5019 136.413 15.5019C140.693 15.5019 144.073 16.7219 146.553 19.1619C149.033 21.5619 150.273 25.5019 150.273 30.9819C150.273 36.4219 149.033 40.3619 146.553 42.8019C144.073 45.2419 140.693 46.4619 136.413 46.4619ZM136.413 39.2619C137.533 39.2619 138.473 39.0419 139.233 38.6019C139.993 38.1219 140.573 37.2819 140.973 36.0819C141.413 34.8819 141.633 33.1819 141.633 30.9819C141.633 28.7819 141.413 27.0819 140.973 25.8819C140.573 24.6819 139.993 23.8619 139.233 23.4219C138.473 22.9419 137.533 22.7019 136.413 22.7019C135.333 22.7019 134.393 22.9419 133.593 23.4219C132.833 23.8619 132.233 24.6819 131.793 25.8819C131.393 27.0819 131.193 28.7819 131.193 30.9819C131.193 33.1819 131.393 34.8819 131.793 36.0819C132.233 37.2819 132.833 38.1219 133.593 38.6019C134.393 39.0419 135.333 39.2619 136.413 39.2619ZM160.367 46.4619C157.487 46.4619 156.047 45.1019 156.047 42.3819V27.9819C156.047 24.1419 157.267 21.1019 159.707 18.8619C162.187 16.6219 165.447 15.5019 169.487 15.5019C173.527 15.5019 176.767 16.6219 179.207 18.8619C181.687 21.1019 182.927 24.1419 182.927 27.9819V42.3819C182.927 45.1019 181.487 46.4619 178.607 46.4619C175.727 46.4619 174.287 45.1019 174.287 42.3819V28.4619C174.287 26.5819 173.867 25.1619 173.027 24.2019C172.187 23.2019 171.007 22.7019 169.487 22.7019C167.967 22.7019 166.787 23.2019 165.947 24.2019C165.107 25.1619 164.687 26.5819 164.687 28.4619V42.3819C164.687 45.1019 163.247 46.4619 160.367 46.4619ZM198.025 42.4419C198.025 45.1219 196.625 46.4619 193.825 46.4619C192.465 46.4619 191.385 46.1219 190.585 45.4419C189.785 44.7619 189.385 43.7619 189.385 42.4419V4.94193C189.385 1.82193 190.845 0.261932 193.765 0.261932C196.645 0.261932 198.085 1.82193 198.085 4.94193V11.3619C198.085 12.4819 197.965 13.5619 197.725 14.6019C197.485 15.6419 197.085 16.7219 196.525 17.8419C197.205 17.0019 198.105 16.4019 199.225 16.0419C200.345 15.6819 201.645 15.5019 203.125 15.5019C205.765 15.5019 208.065 16.0219 210.025 17.0619C211.985 18.1019 213.505 19.5619 214.585 21.4419C215.705 23.2819 216.265 25.4819 216.265 28.0419V42.4419C216.265 45.1219 214.865 46.4619 212.065 46.4619C210.705 46.4619 209.625 46.1219 208.825 45.4419C208.025 44.7619 207.625 43.7619 207.625 42.4419V28.4019C207.625 26.5219 207.185 25.1019 206.305 24.1419C205.465 23.1819 204.285 22.7019 202.765 22.7019C201.285 22.7019 200.125 23.2019 199.285 24.2019C198.445 25.1619 198.025 26.5619 198.025 28.4019V42.4419ZM237.645 46.4619C233.645 46.4619 230.505 45.8019 228.225 44.4819C225.985 43.1619 224.385 41.3419 223.425 39.0219C222.505 36.7019 222.045 34.0419 222.045 31.0419C222.045 25.5219 223.265 21.5619 225.705 19.1619C228.145 16.7219 231.425 15.5019 235.545 15.5019C238.025 15.5019 240.225 15.9219 242.145 16.7619C244.065 17.6019 245.565 18.8019 246.645 20.3619C247.725 21.8819 248.265 23.7419 248.265 25.9419C248.265 32.3419 243.705 35.5419 234.585 35.5419H231.105C231.425 36.7819 231.945 37.7619 232.665 38.4819C233.425 39.1619 234.745 39.5019 236.625 39.5019C237.665 39.5019 238.505 39.4419 239.145 39.3219C239.785 39.2019 240.385 39.0819 240.945 38.9619C241.545 38.8419 242.225 38.7819 242.985 38.7819C244.065 38.7819 244.925 38.9819 245.565 39.3819C246.205 39.7419 246.525 40.5019 246.525 41.6619C246.525 43.3019 245.805 44.5219 244.365 45.3219C242.965 46.0819 240.725 46.4619 237.645 46.4619ZM230.685 31.1019C231.005 30.6619 231.365 30.3819 231.765 30.2619C232.165 30.1019 232.785 30.0219 233.625 30.0219C235.985 30.0219 237.605 29.8019 238.485 29.3619C239.405 28.8819 239.865 28.0419 239.865 26.8419C239.865 25.3219 239.445 24.1619 238.605 23.3619C237.765 22.5219 236.705 22.1019 235.425 22.1019C233.945 22.1019 232.785 22.7219 231.945 23.9619C231.105 25.2019 230.685 27.5819 230.685 31.1019ZM266.325 46.4619C261.445 46.4619 257.825 45.0619 255.465 42.2619C253.105 39.4219 251.925 35.6819 251.925 31.0419C251.925 26.4019 253.105 22.6619 255.465 19.8219C257.825 16.9419 261.445 15.5019 266.325 15.5019C269.405 15.5019 271.645 15.8219 273.045 16.4619C274.485 17.1019 275.205 18.2419 275.205 19.8819C275.205 21.0419 274.885 21.8819 274.245 22.4019C273.605 22.9219 272.745 23.1819 271.665 23.1819C270.905 23.1819 270.305 23.1219 269.865 23.0019C269.425 22.8819 268.945 22.7819 268.425 22.7019C267.945 22.5819 267.185 22.5219 266.145 22.5219C264.745 22.5219 263.625 22.9419 262.785 23.7819C261.985 24.6219 261.405 25.7019 261.045 27.0219C260.725 28.3019 260.565 29.6419 260.565 31.0419C260.565 32.4019 260.685 33.7419 260.925 35.0619C261.205 36.3419 261.745 37.4019 262.545 38.2419C263.345 39.0419 264.565 39.4419 266.205 39.4419C267.725 39.4419 268.845 39.3419 269.565 39.1419C270.285 38.9019 270.985 38.7819 271.665 38.7819C272.745 38.7819 273.605 38.9819 274.245 39.3819C274.885 39.7419 275.205 40.5019 275.205 41.6619C275.205 43.3019 274.485 44.5219 273.045 45.3219C271.645 46.0819 269.405 46.4619 266.325 46.4619ZM262.545 60.1419C260.785 60.0619 259.425 59.7019 258.465 59.0619C257.545 58.4619 257.105 57.6419 257.145 56.6019C257.145 55.9619 257.365 55.4019 257.805 54.9219C258.245 54.4819 258.845 54.2819 259.605 54.3219C260.205 54.3219 260.685 54.4219 261.045 54.6219C261.445 54.8619 261.945 55.0019 262.545 55.0419C264.465 55.0819 265.465 54.4819 265.545 53.2419C265.585 52.5619 265.205 51.9819 264.405 51.5019C263.605 51.0619 262.605 50.8219 261.405 50.7819C260.645 50.7019 260.265 50.2819 260.265 49.5219C260.305 49.1619 260.465 48.6219 260.745 47.9019C261.065 47.1819 261.465 46.4219 261.945 45.6219C262.425 44.7819 262.905 44.0419 263.385 43.4019L268.545 43.8219L266.205 48.3219C267.445 48.4819 268.485 49.1219 269.325 50.2419C270.205 51.3619 270.625 52.6019 270.585 53.9619C270.545 55.9619 269.785 57.5019 268.305 58.5819C266.865 59.7019 264.945 60.2219 262.545 60.1419ZM291.064 46.4619C287.064 46.4619 283.944 45.5419 281.704 43.7019C279.464 41.8219 278.344 39.4019 278.344 36.4419C278.344 32.9619 279.804 30.4419 282.724 28.8819C285.684 27.3219 290.004 26.7819 295.684 27.2619C295.404 25.4219 294.824 24.1819 293.944 23.5419C293.064 22.8619 292.004 22.5219 290.764 22.5219C289.764 22.5219 288.924 22.5819 288.244 22.7019C287.604 22.7819 287.004 22.8819 286.444 23.0019C285.884 23.1219 285.204 23.1819 284.404 23.1819C283.324 23.1819 282.464 23.0019 281.824 22.6419C281.184 22.2419 280.864 21.4619 280.864 20.3019C280.864 18.6619 281.564 17.4619 282.964 16.7019C284.404 15.9019 286.664 15.5019 289.744 15.5019C294.624 15.5019 298.244 16.9019 300.604 19.7019C302.964 22.4619 304.144 26.1619 304.144 30.8019C304.144 36.1619 303.164 40.1219 301.204 42.6819C299.284 45.2019 295.904 46.4619 291.064 46.4619ZM286.984 36.4419C286.984 38.7219 288.524 39.8619 291.604 39.8619C292.604 39.8619 293.384 39.6819 293.944 39.3219C294.504 38.9619 294.904 38.2419 295.144 37.1619C295.424 36.0819 295.624 34.4619 295.744 32.3019C295.544 32.5019 295.284 32.6419 294.964 32.7219C294.644 32.8019 294.324 32.8419 294.004 32.8419C291.364 32.8419 289.524 33.1019 288.484 33.6219C287.484 34.1019 286.984 35.0419 286.984 36.4419ZM336.24 46.4619C333.6 46.4619 331.28 45.9219 329.28 44.8419C327.28 43.7619 325.72 42.2419 324.6 40.2819C323.52 38.3219 322.98 36.0419 322.98 33.4419V19.4019C322.98 16.6819 324.42 15.3219 327.3 15.3219C330.18 15.3219 331.62 16.6819 331.62 19.4019V33.3219C331.62 35.2019 332.02 36.6619 332.82 37.7019C333.62 38.7419 334.76 39.2619 336.24 39.2619C337.72 39.2619 338.86 38.7419 339.66 37.7019C340.46 36.6619 340.86 35.2019 340.86 33.3219V19.4019C340.86 16.6819 342.3 15.3219 345.18 15.3219C348.06 15.3219 349.5 16.6819 349.5 19.4019V33.4419C349.5 36.0419 348.94 38.3219 347.82 40.2819C346.74 42.2419 345.2 43.7619 343.2 44.8419C341.24 45.9219 338.92 46.4619 336.24 46.4619ZM359.996 46.4619C357.116 46.4619 355.676 45.1019 355.676 42.3819V27.9819C355.676 23.9019 356.636 20.8019 358.556 18.6819C360.516 16.5619 363.316 15.5019 366.956 15.5019C371.916 15.5019 375.276 17.2819 377.036 20.8419C378.796 17.2819 382.156 15.5019 387.116 15.5019C390.756 15.5019 393.536 16.5619 395.456 18.6819C397.416 20.8019 398.396 23.9019 398.396 27.9819V42.3819C398.396 45.1019 396.956 46.4619 394.076 46.4619C391.196 46.4619 389.756 45.1019 389.756 42.3819V28.4619C389.756 26.4219 389.416 24.9619 388.736 24.0819C388.056 23.1619 386.996 22.7019 385.556 22.7019C382.676 22.7019 381.236 24.6219 381.236 28.4619V42.1419C381.236 44.8619 379.836 46.2219 377.036 46.2219C374.236 46.2219 372.836 44.8619 372.836 42.1419V28.4619C372.836 24.6219 371.396 22.7019 368.516 22.7019C365.716 22.7019 364.316 24.6219 364.316 28.4619V42.3819C364.316 45.1019 362.876 46.4619 359.996 46.4619ZM423.221 59.7819C420.301 59.7819 418.841 58.2219 418.841 55.1019V31.4619C418.841 26.0219 420.041 21.9619 422.441 19.2819C424.841 16.6019 428.201 15.2619 432.521 15.2619C436.921 15.2619 440.381 16.6619 442.901 19.4619C445.461 22.2619 446.741 26.3619 446.741 31.7619C446.741 35.3619 446.221 38.2419 445.181 40.4019C444.141 42.5219 442.701 44.0619 440.861 45.0219C439.021 45.9819 436.901 46.4619 434.501 46.4619C432.421 46.4619 430.701 46.1619 429.341 45.5619C428.021 44.9619 426.981 44.0419 426.221 42.8019C426.501 43.6019 426.701 44.3819 426.821 45.1419C426.981 45.9019 427.081 46.7819 427.121 47.7819C427.201 48.7819 427.241 50.0619 427.241 51.6219V55.1019C427.241 58.2219 425.901 59.7819 423.221 59.7819ZM432.941 39.4419C434.621 39.4419 435.921 38.8619 436.841 37.7019C437.801 36.5019 438.281 34.2619 438.281 30.9819C438.281 27.7019 437.801 25.4819 436.841 24.3219C435.921 23.1219 434.621 22.5219 432.941 22.5219C431.261 22.5219 429.941 23.1219 428.981 24.3219C428.061 25.4819 427.601 27.7019 427.601 30.9819C427.601 34.2619 428.061 36.5019 428.981 37.7019C429.941 38.8619 431.261 39.4419 432.941 39.4419ZM464.773 46.4619C460.493 46.4619 457.113 45.2419 454.633 42.8019C452.153 40.3619 450.913 36.4219 450.913 30.9819C450.913 25.5019 452.153 21.5619 454.633 19.1619C457.113 16.7219 460.493 15.5019 464.773 15.5019C469.053 15.5019 472.433 16.7219 474.913 19.1619C477.393 21.5619 478.633 25.5019 478.633 30.9819C478.633 36.4219 477.393 40.3619 474.913 42.8019C472.433 45.2419 469.053 46.4619 464.773 46.4619ZM464.773 39.2619C465.893 39.2619 466.833 39.0419 467.593 38.6019C468.353 38.1219 468.933 37.2819 469.333 36.0819C469.773 34.8819 469.993 33.1819 469.993 30.9819C469.993 28.7819 469.773 27.0819 469.333 25.8819C468.933 24.6819 468.353 23.8619 467.593 23.4219C466.833 22.9419 465.893 22.7019 464.773 22.7019C463.693 22.7019 462.753 22.9419 461.953 23.4219C461.193 23.8619 460.593 24.6819 460.153 25.8819C459.753 27.0819 459.553 28.7819 459.553 30.9819C459.553 33.1819 459.753 34.8819 460.153 36.0819C460.593 37.2819 461.193 38.1219 461.953 38.6019C462.753 39.0419 463.693 39.2619 464.773 39.2619ZM497.666 46.4619C495.026 46.4619 492.706 45.9219 490.706 44.8419C488.706 43.7619 487.146 42.2419 486.026 40.2819C484.946 38.3219 484.406 36.0419 484.406 33.4419V19.4019C484.406 16.6819 485.846 15.3219 488.726 15.3219C491.606 15.3219 493.046 16.6819 493.046 19.4019V33.3219C493.046 35.2019 493.446 36.6619 494.246 37.7019C495.046 38.7419 496.186 39.2619 497.666 39.2619C499.146 39.2619 500.286 38.7419 501.086 37.7019C501.886 36.6619 502.286 35.2019 502.286 33.3219V19.4019C502.286 16.6819 503.726 15.3219 506.606 15.3219C509.486 15.3219 510.926 16.6819 510.926 19.4019V33.4419C510.926 36.0419 510.366 38.3219 509.246 40.2819C508.166 42.2419 506.626 43.7619 504.626 44.8419C502.666 45.9219 500.346 46.4619 497.666 46.4619ZM530.876 46.4619C525.996 46.4619 522.376 45.0619 520.016 42.2619C517.656 39.4219 516.476 35.6819 516.476 31.0419C516.476 26.4019 517.656 22.6619 520.016 19.8219C522.376 16.9419 525.996 15.5019 530.876 15.5019C533.956 15.5019 536.196 15.8219 537.596 16.4619C539.036 17.1019 539.756 18.2419 539.756 19.8819C539.756 21.0419 539.436 21.8819 538.796 22.4019C538.156 22.9219 537.296 23.1819 536.216 23.1819C535.456 23.1819 534.856 23.1219 534.416 23.0019C533.976 22.8819 533.496 22.7819 532.976 22.7019C532.496 22.5819 531.736 22.5219 530.696 22.5219C529.296 22.5219 528.176 22.9419 527.336 23.7819C526.536 24.6219 525.956 25.7019 525.596 27.0219C525.276 28.3019 525.116 29.6419 525.116 31.0419C525.116 32.4019 525.236 33.7419 525.476 35.0619C525.756 36.3419 526.296 37.4019 527.096 38.2419C527.896 39.0419 529.116 39.4419 530.756 39.4419C532.276 39.4419 533.396 39.3419 534.116 39.1419C534.836 38.9019 535.536 38.7819 536.216 38.7819C537.296 38.7819 538.156 38.9819 538.796 39.3819C539.436 39.7419 539.756 40.5019 539.756 41.6619C539.756 43.3019 539.036 44.5219 537.596 45.3219C536.196 46.0819 533.956 46.4619 530.876 46.4619ZM557.702 46.4619C553.422 46.4619 550.042 45.2419 547.562 42.8019C545.082 40.3619 543.842 36.4219 543.842 30.9819C543.842 25.5019 545.082 21.5619 547.562 19.1619C550.042 16.7219 553.422 15.5019 557.702 15.5019C561.982 15.5019 565.362 16.7219 567.842 19.1619C570.322 21.5619 571.562 25.5019 571.562 30.9819C571.562 36.4219 570.322 40.3619 567.842 42.8019C565.362 45.2419 561.982 46.4619 557.702 46.4619ZM557.702 39.2619C558.822 39.2619 559.762 39.0419 560.522 38.6019C561.282 38.1219 561.862 37.2819 562.262 36.0819C562.702 34.8819 562.922 33.1819 562.922 30.9819C562.922 28.7819 562.702 27.0819 562.262 25.8819C561.862 24.6819 561.282 23.8619 560.522 23.4219C559.762 22.9419 558.822 22.7019 557.702 22.7019C556.622 22.7019 555.682 22.9419 554.882 23.4219C554.122 23.8619 553.522 24.6819 553.082 25.8819C552.682 27.0819 552.482 28.7819 552.482 30.9819C552.482 33.1819 552.682 34.8819 553.082 36.0819C553.522 37.2819 554.122 38.1219 554.882 38.6019C555.682 39.0419 556.622 39.2619 557.702 39.2619ZM594.722 46.4619C591.842 46.4619 590.402 45.1019 590.402 42.3819V27.9819C590.402 23.9019 591.362 20.8019 593.282 18.6819C595.242 16.5619 598.042 15.5019 601.682 15.5019C606.642 15.5019 610.002 17.2819 611.762 20.8419C613.522 17.2819 616.882 15.5019 621.842 15.5019C625.482 15.5019 628.262 16.5619 630.182 18.6819C632.142 20.8019 633.122 23.9019 633.122 27.9819V42.3819C633.122 45.1019 631.682 46.4619 628.802 46.4619C625.922 46.4619 624.482 45.1019 624.482 42.3819V28.4619C624.482 26.4219 624.142 24.9619 623.462 24.0819C622.782 23.1619 621.722 22.7019 620.282 22.7019C617.402 22.7019 615.962 24.6219 615.962 28.4619V42.1419C615.962 44.8619 614.562 46.2219 611.762 46.2219C608.962 46.2219 607.562 44.8619 607.562 42.1419V28.4619C607.562 24.6219 606.122 22.7019 603.242 22.7019C600.442 22.7019 599.042 24.6219 599.042 28.4619V42.3819C599.042 45.1019 597.602 46.4619 594.722 46.4619ZM650.537 46.4619C646.537 46.4619 643.417 45.5419 641.177 43.7019C638.937 41.8219 637.817 39.4019 637.817 36.4419C637.817 32.9619 639.277 30.4419 642.197 28.8819C645.157 27.3219 649.477 26.7819 655.157 27.2619C654.877 25.4219 654.297 24.1819 653.417 23.5419C652.537 22.8619 651.477 22.5219 650.237 22.5219C649.237 22.5219 648.397 22.5819 647.717 22.7019C647.077 22.7819 646.477 22.8819 645.917 23.0019C645.357 23.1219 644.677 23.1819 643.877 23.1819C642.797 23.1819 641.937 23.0019 641.297 22.6419C640.657 22.2419 640.337 21.4619 640.337 20.3019C640.337 18.6619 641.037 17.4619 642.437 16.7019C643.877 15.9019 646.137 15.5019 649.217 15.5019C654.097 15.5019 657.717 16.9019 660.077 19.7019C662.437 22.4619 663.617 26.1619 663.617 30.8019C663.617 36.1619 662.637 40.1219 660.677 42.6819C658.757 45.2019 655.377 46.4619 650.537 46.4619ZM646.457 36.4419C646.457 38.7219 647.997 39.8619 651.077 39.8619C652.077 39.8619 652.857 39.6819 653.417 39.3219C653.977 38.9619 654.377 38.2419 654.617 37.1619C654.897 36.0819 655.097 34.4619 655.217 32.3019C655.017 32.5019 654.757 32.6419 654.437 32.7219C654.117 32.8019 653.797 32.8419 653.477 32.8419C650.837 32.8419 648.997 33.1019 647.957 33.6219C646.957 34.1019 646.457 35.0419 646.457 36.4419ZM673.709 10.3419C672.229 10.3419 670.989 9.86193 669.989 8.90193C668.989 7.94193 668.489 6.76193 668.489 5.36193C668.489 3.88193 668.989 2.66193 669.989 1.70193C670.989 0.741932 672.229 0.261932 673.709 0.261932C675.229 0.261932 676.469 0.741932 677.429 1.70193C678.429 2.66193 678.929 3.88193 678.929 5.36193C678.929 6.76193 678.429 7.94193 677.429 8.90193C676.469 9.86193 675.229 10.3419 673.709 10.3419ZM678.029 42.4419C678.029 45.1219 676.629 46.4619 673.829 46.4619C672.469 46.4619 671.389 46.1419 670.589 45.5019C669.789 44.8219 669.389 43.8019 669.389 42.4419V19.5819C669.389 18.3019 669.709 17.3019 670.349 16.5819C671.029 15.8619 672.149 15.5019 673.709 15.5019C675.269 15.5019 676.369 15.8619 677.009 16.5819C677.689 17.3019 678.029 18.3019 678.029 19.5819V42.4419ZM694.873 46.4619C687.353 46.4619 683.593 44.8019 683.593 41.4819C683.593 40.4419 683.873 39.6219 684.433 39.0219C684.993 38.4219 685.733 38.1219 686.653 38.1219C687.053 38.1219 687.433 38.1819 687.793 38.3019C688.193 38.3819 688.953 38.6019 690.073 38.9619C690.553 39.1219 691.193 39.2819 691.993 39.4419C692.793 39.6019 693.573 39.6819 694.333 39.6819C695.773 39.6819 696.793 39.5019 697.393 39.1419C697.993 38.7819 698.293 38.1819 698.293 37.3419C698.293 36.6619 698.133 36.1419 697.813 35.7819C697.493 35.3819 696.813 35.0019 695.773 34.6419C694.733 34.2819 693.113 33.7819 690.913 33.1419C688.913 32.5819 687.293 31.5819 686.053 30.1419C684.853 28.6619 684.253 26.8419 684.253 24.6819C684.253 21.6419 685.353 19.3219 687.553 17.7219C689.753 16.1219 692.773 15.3219 696.613 15.3219C699.493 15.3219 701.753 15.7219 703.393 16.5219C705.033 17.3219 705.853 18.4819 705.853 20.0019C705.853 20.9619 705.573 21.7619 705.013 22.4019C704.453 23.0419 703.693 23.3619 702.733 23.3619C702.333 23.3619 701.853 23.3019 701.293 23.1819C700.773 23.0619 700.133 22.9019 699.373 22.7019C698.813 22.5019 698.213 22.3419 697.573 22.2219C696.973 22.1019 696.333 22.0419 695.653 22.0419C693.733 22.0419 692.773 22.7219 692.773 24.0819C692.773 24.8819 693.153 25.5619 693.913 26.1219C694.673 26.6419 696.133 27.2219 698.293 27.8619C701.253 28.7419 703.433 29.9219 704.833 31.4019C706.233 32.8419 706.933 34.7619 706.933 37.1619C706.933 39.9619 705.853 42.2219 703.693 43.9419C701.573 45.6219 698.633 46.4619 694.873 46.4619Z" fill="#121212"/>
</svg>
