<svg width="33" height="34" viewBox="0 0 33 34" fill="none" xmlns="http://www.w3.org/2000/svg">
<g filter="url(#filter0_d_1645_3779)">
<path d="M9.1015 22.8954C8.60956 22.2629 7.99464 20.9804 6.92292 19.3816C6.308 18.5031 4.79705 16.834 4.34025 15.9732C4.01095 15.45 3.9154 14.813 4.07671 14.2162C4.35248 13.0816 5.42877 12.329 6.5891 12.4593C7.48654 12.6396 8.31128 13.0794 8.96095 13.7243C9.41455 14.1515 9.8318 14.6158 10.2084 15.1123C10.4895 15.4636 10.5597 15.6042 10.876 16.0083C11.1922 16.4124 11.4031 16.8165 11.2449 16.2191C11.122 15.3407 10.9111 13.8648 10.6125 12.5472C10.3841 11.5457 10.3313 11.3876 10.1205 10.6321C9.90968 9.87664 9.7867 9.24415 9.5583 8.38326C9.34952 7.53743 9.18531 6.68121 9.06636 5.81815C8.84491 4.71429 9.00602 3.56791 9.52316 2.56785C10.137 1.99047 11.0375 1.83808 11.8072 2.18133C12.5813 2.75292 13.1584 3.55111 13.4587 4.46533C13.9191 5.59044 14.2264 6.77227 14.3723 7.97917C14.6534 9.73609 15.198 12.3012 15.2156 12.8283C15.2156 12.1782 15.0926 10.8078 15.2156 10.1929C15.3374 9.55183 15.783 9.01981 16.3927 8.78735C16.9159 8.62681 17.4694 8.59071 18.0091 8.68193C18.5538 8.79581 19.0363 9.10912 19.3619 9.56039C19.769 10.5854 19.9949 11.6733 20.0295 12.7756C20.0766 11.8103 20.2418 10.8544 20.5215 9.92935C20.8151 9.51568 21.2438 9.21743 21.7338 9.08603C22.3146 8.97983 22.9098 8.97983 23.4907 9.08603C23.967 9.24526 24.3836 9.54549 24.6854 9.94692C25.0574 10.8787 25.2827 11.8626 25.353 12.8634C25.353 13.1094 25.476 12.1782 25.8625 11.5633C26.0634 10.967 26.5671 10.5231 27.1839 10.3989C27.8008 10.2747 28.437 10.489 28.853 10.9611C29.269 11.4332 29.4015 12.0914 29.2007 12.6877C29.2007 13.8297 29.2007 13.777 29.2007 14.55C29.2007 15.3231 29.2007 16.0083 29.2007 16.6583C29.1366 17.6865 28.9957 18.7083 28.779 19.7154C28.4733 20.6064 28.0477 21.4516 27.514 22.2278C26.6609 23.1765 25.9561 24.2486 25.4233 25.4078C25.2911 25.9837 25.2321 26.574 25.2476 27.1647C25.2458 27.7105 25.3167 28.2541 25.4584 28.7811C24.7401 28.857 24.0158 28.857 23.2974 28.7811C22.6122 28.6757 21.7689 27.3053 21.5405 26.8836C21.4275 26.6572 21.1962 26.5142 20.9431 26.5142C20.6901 26.5142 20.4588 26.6572 20.3458 26.8836C19.9593 27.5513 19.0984 28.7635 18.501 28.8338C17.3239 28.9744 14.8993 28.8338 12.9843 28.8338C12.9843 28.8338 13.3005 27.0769 12.5802 26.4444C11.8599 25.8119 11.122 25.074 10.5773 24.5821L9.1015 22.8954Z" fill="white"/>
<path fill-rule="evenodd" clip-rule="evenodd" d="M9.1015 22.8954C8.60956 22.2629 7.99464 20.9804 6.92292 19.3816C6.308 18.5031 4.79705 16.834 4.34025 15.9732C4.01095 15.45 3.9154 14.813 4.07671 14.2162C4.35248 13.0816 5.42877 12.329 6.5891 12.4593C7.48654 12.6396 8.31128 13.0794 8.96095 13.7243C9.41455 14.1515 9.8318 14.6158 10.2084 15.1123C10.4895 15.4636 10.5597 15.6042 10.876 16.0083C11.1922 16.4124 11.4031 16.8165 11.2449 16.2191C11.122 15.3407 10.9111 13.8648 10.6125 12.5472C10.3841 11.5457 10.3313 11.3876 10.1205 10.6321C9.90968 9.87664 9.7867 9.24415 9.5583 8.38326C9.34952 7.53743 9.18531 6.68121 9.06636 5.81815C8.84491 4.71429 9.00602 3.56791 9.52316 2.56785C10.137 1.99047 11.0375 1.83808 11.8072 2.18133C12.5813 2.75292 13.1584 3.55111 13.4587 4.46533C13.9191 5.59044 14.2264 6.77227 14.3723 7.97917C14.6534 9.73609 15.198 12.3012 15.2156 12.8283C15.2156 12.1782 15.0926 10.8078 15.2156 10.1929C15.3374 9.55183 15.783 9.01981 16.3927 8.78735C16.9159 8.62681 17.4694 8.59071 18.0091 8.68193C18.5538 8.79581 19.0363 9.10912 19.3619 9.56039C19.769 10.5854 19.9949 11.6733 20.0295 12.7756C20.0766 11.8103 20.2418 10.8544 20.5215 9.92935C20.8151 9.51568 21.2438 9.21743 21.7338 9.08603C22.3146 8.97983 22.9098 8.97983 23.4907 9.08603C23.967 9.24526 24.3836 9.54549 24.6854 9.94692C25.0574 10.8787 25.2827 11.8626 25.353 12.8634C25.353 13.1094 25.476 12.1782 25.8625 11.5633C26.0634 10.967 26.5671 10.5231 27.1839 10.3989C27.8008 10.2747 28.437 10.489 28.853 10.9611C29.269 11.4332 29.4015 12.0914 29.2007 12.6877C29.2007 13.8297 29.2007 13.777 29.2007 14.55C29.2007 15.3231 29.2007 16.0083 29.2007 16.6583C29.1366 17.6865 28.9957 18.7083 28.779 19.7154C28.4733 20.6064 28.0477 21.4516 27.514 22.2278C26.6609 23.1765 25.9561 24.2486 25.4233 25.4078C25.2911 25.9837 25.2321 26.574 25.2476 27.1647C25.2458 27.7105 25.3167 28.2541 25.4584 28.7811C24.7401 28.857 24.0158 28.857 23.2974 28.7811C22.6122 28.6757 21.7689 27.3053 21.5405 26.8836C21.4275 26.6572 21.1962 26.5142 20.9431 26.5142C20.6901 26.5142 20.4588 26.6572 20.3458 26.8836C19.9593 27.5513 19.0984 28.7635 18.501 28.8338C17.3239 28.9744 14.8993 28.8338 12.9843 28.8338C12.9843 28.8338 13.3005 27.0769 12.5802 26.4444C11.8599 25.8119 11.122 25.074 10.5773 24.5821L9.1015 22.8954Z" stroke="black" stroke-width="1.31769" stroke-linecap="round" stroke-linejoin="round"/>
<path d="M24.0013 23.8551V17.7906C24.0013 17.4276 23.7063 17.1333 23.3424 17.1333C22.9786 17.1333 22.6836 17.4276 22.6836 17.7906V23.8551C22.6836 24.2181 22.9786 24.5124 23.3424 24.5124C23.7063 24.5124 24.0013 24.2181 24.0013 23.8551Z" fill="black"/>
<path d="M20.5208 23.8529L20.4856 17.7852C20.4836 17.4231 20.1869 17.1312 19.823 17.1333C19.4592 17.1354 19.1659 17.4307 19.168 17.7928L19.2031 23.8604C19.2052 24.2226 19.5019 24.5144 19.8657 24.5124C20.2296 24.5103 20.5229 24.215 20.5208 23.8529Z" fill="black"/>
<path d="M15.6543 17.7992L15.6894 23.8542C15.6916 24.2198 15.9883 24.5145 16.3521 24.5124C16.716 24.5102 17.0092 24.2121 17.0071 23.8465L16.972 17.7914C16.9699 17.4258 16.6732 17.1312 16.3093 17.1333C15.9454 17.1354 15.6522 17.4336 15.6543 17.7992Z" fill="black"/>
</g>
<defs>
<filter id="filter0_d_1645_3779" x="0.681797" y="0.0113086" width="31.9294" height="33.5339" filterUnits="userSpaceOnUse" color-interpolation-filters="sRGB">
<feFlood flood-opacity="0" result="BackgroundImageFix"/>
<feColorMatrix in="SourceAlpha" type="matrix" values="0 0 0 0 0 0 0 0 0 0 0 0 0 0 0 0 0 0 127 0" result="hardAlpha"/>
<feOffset dy="1.33"/>
<feGaussianBlur stdDeviation="1.33"/>
<feColorMatrix type="matrix" values="0 0 0 0 0 0 0 0 0 0 0 0 0 0 0 0 0 0 0.28 0"/>
<feBlend mode="normal" in2="BackgroundImageFix" result="effect1_dropShadow_1645_3779"/>
<feBlend mode="normal" in="SourceGraphic" in2="effect1_dropShadow_1645_3779" result="shape"/>
</filter>
</defs>
</svg>
