<svg width="300" height="162" viewBox="0 0 300 162" fill="none" xmlns="http://www.w3.org/2000/svg">
<path d="M71.3876 82.6783C70.2582 82.6783 69.1289 82.6783 67.9959 82.6783C46.6231 82.6783 25.2503 82.6783 3.87754 82.6826C3.51088 82.6826 3.14421 82.7041 2.77755 82.6698C1.92689 82.5882 0.724235 83.0215 0.742568 81.3441C0.764568 79.7268 1.92689 80.0142 2.80321 80.0142C25.2137 80.0056 47.6241 80.0056 70.0382 80.0056L71.9595 80.0056C72.0732 79.7911 72.1905 79.5766 72.3042 79.3621C71.5159 78.6071 70.6396 77.9464 69.9832 77.0583C69.7009 76.6765 69.8842 75.8271 69.8586 75.1922C70.4159 75.1793 71.1859 74.8876 71.4902 75.205C73.0339 76.8224 74.4895 78.5599 75.8828 80.3574C76.1028 80.6405 76.0038 81.6444 75.7398 81.9876C74.4712 83.6264 73.1622 85.2481 71.7176 86.6638C71.2702 87.1014 70.3462 86.8697 69.6386 86.9426C69.7743 86.2133 69.7522 85.3639 70.0822 84.7933C70.4562 84.1455 71.1456 83.7508 71.6992 83.2446C71.5929 83.0558 71.4902 82.8671 71.3839 82.674L71.3876 82.6783Z" fill="#EC2B58"/>
<rect x="99.043" y="2.26562" width="198.887" height="14.7273" fill="#2E2E2E"/>
<rect x="114.18" y="26.6928" width="76.4158" height="50.8377" rx="1.9113" stroke="black" stroke-width="1.2742"/>
<rect x="212.654" y="108.323" width="66.9656" height="34.8501" rx="1.84759" stroke="black" stroke-width="1.40162"/>
<rect x="99.2781" y="1.2742" width="199.446" height="159.452" rx="3.82259" stroke="black" stroke-width="2.54839"/>
<rect x="198.484" y="48.7131" width="77.69" height="1.6993" rx="0.84965" fill="black"/>
<rect x="198.484" y="40.7827" width="77.69" height="1.6993" rx="0.84965" fill="black"/>
<rect x="198.484" y="32.8525" width="77.69" height="1.6993" rx="0.84965" fill="black"/>
<rect x="198.484" y="56.6431" width="77.69" height="1.6993" rx="0.84965" fill="black"/>
<rect x="113.543" y="84.9648" width="163.667" height="1.6993" rx="0.84965" fill="black"/>
<rect x="113.543" y="92.895" width="163.667" height="1.6993" rx="0.84965" fill="black"/>
<rect x="113.543" y="100.825" width="163.667" height="1.6993" rx="0.84965" fill="black"/>
<rect x="113.543" y="108.755" width="93.2281" height="1.6993" rx="0.84965" fill="black"/>
<rect x="113.543" y="124.615" width="93.2281" height="1.6993" rx="0.84965" fill="black"/>
<rect x="113.543" y="116.685" width="93.2281" height="1.6993" rx="0.84965" fill="black"/>
<rect x="113.543" y="132.545" width="93.2281" height="1.6993" rx="0.84965" fill="black"/>
<rect x="198.994" y="66.4989" width="34.2001" height="8.04358" rx="2.03872" stroke="black" stroke-width="1.01936"/>
</svg>
