<svg width="297" height="84" viewBox="0 0 297 84" fill="none" xmlns="http://www.w3.org/2000/svg">
<path d="M15.232 64.512C13.6107 64.512 11.904 64.384 10.112 64.128C8.32 63.872 6.86933 63.5307 5.76 63.104C3.968 62.3787 3.072 61.1627 3.072 59.456C3.072 58.2187 3.43467 57.2373 4.16 56.512C4.928 55.744 6.12267 55.36 7.744 55.36C8.85333 55.36 10.1973 55.5093 11.776 55.808C13.3547 56.1067 14.7413 56.256 15.936 56.256C18.5813 56.256 20.48 55.9147 21.632 55.232C22.784 54.5493 23.36 53.1627 23.36 51.072C23.36 49.8347 22.912 48.7893 22.016 47.936C21.1627 47.0827 19.4347 46.272 16.832 45.504C12.096 44.096 8.66133 42.3467 6.528 40.256C4.43733 38.1653 3.392 35.456 3.392 32.128C3.392 29.2267 4.032 26.7733 5.312 24.768C6.63467 22.72 8.448 21.1627 10.752 20.096C13.056 19.0293 15.68 18.496 18.624 18.496C22.08 18.496 24.9387 18.9653 27.2 19.904C28.992 20.5867 29.888 21.8027 29.888 23.552C29.888 24.7893 29.504 25.792 28.736 26.56C28.0107 27.2853 26.8373 27.648 25.216 27.648C24.1493 27.648 22.9973 27.5413 21.76 27.328C20.5227 27.072 19.3067 26.944 18.112 26.944C16.2773 26.944 14.8907 27.264 13.952 27.904C13.0133 28.544 12.544 29.6107 12.544 31.104C12.544 32.4693 13.2053 33.7067 14.528 34.816C15.8507 35.9253 18.2827 37.0133 21.824 38.08C25.8773 39.2747 28.672 40.896 30.208 42.944C31.744 44.9493 32.512 47.5093 32.512 50.624C32.512 55.1467 30.9973 58.6027 27.968 60.992C24.9813 63.3387 20.736 64.512 15.232 64.512ZM51.4615 64.512C46.8962 64.512 43.2908 63.2107 40.6455 60.608C38.0002 58.0053 36.6775 53.8027 36.6775 48C36.6775 42.1547 38.0002 37.952 40.6455 35.392C43.2908 32.7893 46.8962 31.488 51.4615 31.488C56.0268 31.488 59.6322 32.7893 62.2775 35.392C64.9228 37.952 66.2455 42.1547 66.2455 48C66.2455 53.8027 64.9228 58.0053 62.2775 60.608C59.6322 63.2107 56.0268 64.512 51.4615 64.512ZM51.4615 56.832C52.6562 56.832 53.6588 56.5973 54.4695 56.128C55.2802 55.616 55.8988 54.72 56.3255 53.44C56.7948 52.16 57.0295 50.3467 57.0295 48C57.0295 45.6533 56.7948 43.84 56.3255 42.56C55.8988 41.28 55.2802 40.4053 54.4695 39.936C53.6588 39.424 52.6562 39.168 51.4615 39.168C50.3095 39.168 49.3068 39.424 48.4535 39.936C47.6428 40.4053 47.0028 41.28 46.5335 42.56C46.1068 43.84 45.8935 45.6533 45.8935 48C45.8935 50.3467 46.1068 52.16 46.5335 53.44C47.0028 54.72 47.6428 55.616 48.4535 56.128C49.3068 56.5973 50.3095 56.832 51.4615 56.832ZM86.9395 64.512C82.3315 64.512 78.7475 63.0827 76.1875 60.224C73.6275 57.3653 72.3475 53.056 72.3475 47.296V20.224C72.3475 16.896 73.9048 15.232 77.0195 15.232C79.8782 15.232 81.3075 16.896 81.3075 20.224V25.728C81.3075 27.392 81.2648 28.7573 81.1795 29.824C81.1368 30.8907 81.0302 31.8293 80.8595 32.64C80.7315 33.408 80.5182 34.24 80.2195 35.136C81.0302 33.8133 82.1395 32.8747 83.5475 32.32C84.9982 31.7653 86.8328 31.488 89.0515 31.488C91.6115 31.488 93.8728 31.9787 95.8355 32.96C97.7982 33.8987 99.3342 35.4987 100.444 37.76C101.553 40.0213 102.108 43.072 102.108 46.912C102.108 52.672 100.742 57.0453 98.0115 60.032C95.3235 63.0187 91.6328 64.512 86.9395 64.512ZM87.3875 56.832C89.1795 56.832 90.5662 56.192 91.5475 54.912C92.5715 53.632 93.0835 51.2427 93.0835 47.744C93.0835 45.3973 92.8488 43.6267 92.3795 42.432C91.9528 41.1947 91.3128 40.3413 90.4595 39.872C89.6062 39.4027 88.5822 39.168 87.3875 39.168C86.1928 39.168 85.1688 39.4027 84.3155 39.872C83.4622 40.3413 82.8008 41.1947 82.3315 42.432C81.9048 43.6267 81.6915 45.3973 81.6915 47.744C81.6915 51.2427 82.1822 53.632 83.1635 54.912C84.1875 56.192 85.5955 56.832 87.3875 56.832ZM112.887 64.512C109.815 64.512 108.279 63.0613 108.279 60.16V35.904C108.279 32.96 109.815 31.488 112.887 31.488C114.423 31.488 115.532 31.8293 116.215 32.512C116.898 33.152 117.239 34.2187 117.239 35.712C118.007 34.304 119.095 33.2587 120.503 32.576C121.954 31.8507 123.639 31.488 125.559 31.488C129.228 31.488 131.063 33.088 131.063 36.288C131.063 37.4827 130.615 38.3787 129.719 38.976C128.823 39.5733 127.351 39.872 125.303 39.872C123.298 39.872 121.719 40.064 120.567 40.448C119.415 40.7893 118.604 41.4507 118.135 42.432C117.708 43.3707 117.495 44.736 117.495 46.528V60.16C117.495 63.0613 115.959 64.512 112.887 64.512ZM148.068 64.512C143.801 64.512 140.452 63.808 138.02 62.4C135.63 60.992 133.924 59.0507 132.9 56.576C131.918 54.1013 131.428 51.264 131.428 48.064C131.428 42.176 132.729 37.952 135.332 35.392C137.934 32.7893 141.433 31.488 145.828 31.488C148.473 31.488 150.82 31.936 152.868 32.832C154.916 33.728 156.516 35.008 157.668 36.672C158.82 38.2933 159.396 40.2773 159.396 42.624C159.396 49.4507 154.532 52.864 144.804 52.864H141.092C141.433 54.1867 141.988 55.232 142.756 56C143.566 56.7253 144.974 57.088 146.98 57.088C148.089 57.088 148.985 57.024 149.668 56.896C150.35 56.768 150.99 56.64 151.588 56.512C152.228 56.384 152.953 56.32 153.764 56.32C154.916 56.32 155.833 56.5333 156.516 56.96C157.198 57.344 157.54 58.1547 157.54 59.392C157.54 61.1413 156.772 62.4427 155.236 63.296C153.742 64.1067 151.353 64.512 148.068 64.512ZM140.644 48.128C140.985 47.6587 141.369 47.36 141.796 47.232C142.222 47.0613 142.884 46.976 143.78 46.976C146.297 46.976 148.025 46.7413 148.964 46.272C149.945 45.76 150.436 44.864 150.436 43.584C150.436 41.9627 149.988 40.7253 149.092 39.872C148.196 38.976 147.065 38.528 145.7 38.528C144.121 38.528 142.884 39.1893 141.988 40.512C141.092 41.8347 140.644 44.3733 140.644 48.128ZM183.637 64.512C180.565 64.512 179.029 63.0613 179.029 60.16V44.8C179.029 40.448 180.053 37.1413 182.101 34.88C184.192 32.6187 187.178 31.488 191.061 31.488C196.352 31.488 199.936 33.3867 201.813 37.184C203.69 33.3867 207.274 31.488 212.565 31.488C216.448 31.488 219.413 32.6187 221.461 34.88C223.552 37.1413 224.597 40.448 224.597 44.8V60.16C224.597 63.0613 223.061 64.512 219.989 64.512C216.917 64.512 215.381 63.0613 215.381 60.16V45.312C215.381 43.136 215.018 41.5787 214.293 40.64C213.568 39.6587 212.437 39.168 210.901 39.168C207.829 39.168 206.293 41.216 206.293 45.312V59.904C206.293 62.8053 204.8 64.256 201.813 64.256C198.826 64.256 197.333 62.8053 197.333 59.904V45.312C197.333 41.216 195.797 39.168 192.725 39.168C189.738 39.168 188.245 41.216 188.245 45.312V60.16C188.245 63.0613 186.709 64.512 183.637 64.512ZM236.078 25.984C234.499 25.984 233.176 25.472 232.11 24.448C231.043 23.424 230.51 22.1653 230.51 20.672C230.51 19.0933 231.043 17.792 232.11 16.768C233.176 15.744 234.499 15.232 236.078 15.232C237.699 15.232 239.022 15.744 240.046 16.768C241.112 17.792 241.646 19.0933 241.646 20.672C241.646 22.1653 241.112 23.424 240.046 24.448C239.022 25.472 237.699 25.984 236.078 25.984ZM240.686 60.224C240.686 63.0827 239.192 64.512 236.206 64.512C234.755 64.512 233.603 64.1707 232.75 63.488C231.896 62.7627 231.47 61.6747 231.47 60.224V35.84C231.47 34.4747 231.811 33.408 232.494 32.64C233.219 31.872 234.414 31.488 236.078 31.488C237.742 31.488 238.915 31.872 239.598 32.64C240.323 33.408 240.686 34.4747 240.686 35.84V60.224ZM252.137 64.512C249.065 64.512 247.529 63.0613 247.529 60.16V44.8C247.529 40.448 248.553 37.1413 250.601 34.88C252.692 32.6187 255.678 31.488 259.561 31.488C264.852 31.488 268.436 33.3867 270.313 37.184C272.19 33.3867 275.774 31.488 281.065 31.488C284.948 31.488 287.913 32.6187 289.961 34.88C292.052 37.1413 293.097 40.448 293.097 44.8V60.16C293.097 63.0613 291.561 64.512 288.489 64.512C285.417 64.512 283.881 63.0613 283.881 60.16V45.312C283.881 43.136 283.518 41.5787 282.793 40.64C282.068 39.6587 280.937 39.168 279.401 39.168C276.329 39.168 274.793 41.216 274.793 45.312V59.904C274.793 62.8053 273.3 64.256 270.313 64.256C267.326 64.256 265.833 62.8053 265.833 59.904V45.312C265.833 41.216 264.297 39.168 261.225 39.168C258.238 39.168 256.745 41.216 256.745 45.312V60.16C256.745 63.0613 255.209 64.512 252.137 64.512Z" fill="#121212"/>
<ellipse cx="236" cy="20.5" rx="6" ry="5.5" transform="rotate(180 236 20.5)" fill="#EC2B58"/>
</svg>
